Mertz-Light.ufo
<glyph name="exclam" format="1">
  <advance width="446"/>
  <unicode hex="0021"/>
  <outline>
    <contour>
      <point x="200" y="319" type="line"/>
      <point x="236" y="319" type="line"/>
      <point x="282" y="1241" type="line"/>
      <point x="154" y="1241" type="line"/>
    </contour>
    <component base="period" xOffset="-29"/>
  </outline>
</glyph>
<glyph name="quotedbl" format="1">
  <advance width="636"/>
  <unicode hex="0022"/>
  <outline>
    <contour>
      <point x="402" y="750" type="line"/>
      <point x="450" y="750" type="line"/>
      <point x="494" y="1241" type="line"/>
      <point x="358" y="1241" type="line"/>
    </contour>
    <contour>
      <point x="187" y="750" type="line"/>
      <point x="235" y="750" type="line"/>
      <point x="279" y="1241" type="line"/>
      <point x="143" y="1241" type="line"/>
    </contour>
  </outline>
</glyph>
<glyph name="numbersign" format="1">
  <advance width="1135"/>
  <unicode hex="0023"/>
  <outline>
    <contour>
      <point x="139" y="0" type="line"/>
      <point x="257" y="0" type="line"/>
      <point x="607" y="1241" type="line"/>
      <point x="487" y="1241" type="line"/>
    </contour>
    <contour>
      <point x="106" y="420" type="line"/>
      <point x="981" y="420" type="line"/>
      <point x="981" y="513" type="line"/>
      <point x="106" y="513" type="line"/>
    </contour>
    <contour>
      <point x="156" y="731" type="line"/>
      <point x="1031" y="731" type="line"/>
      <point x="1031" y="824" type="line"/>
      <point x="156" y="824" type="line"/>
    </contour>
    <contour>
      <point x="519" y="0" type="line"/>
      <point x="637" y="0" type="line"/>
      <point x="987" y="1241" type="line"/>
      <point x="867" y="1241" type="line"/>
    </contour>
  </outline>
</glyph>
<glyph name="dollar" format="1">
  <advance width="956"/>
  <unicode hex="0024"/>
  <outline>
    <contour>
      <point x="312" y="-199" type="line"/>
      <point x="386" y="-199" type="line"/>
      <point x="670" y="1404" type="line"/>
      <point x="594" y="1404" type="line"/>
    </contour>
    <contour>
      <point x="508" y="-34" type="curve" smooth="yes"/>
      <point x="699" y="-34"/>
      <point x="883" y="63"/>
      <point x="883" y="281" type="curve" smooth="yes"/>
      <point x="883" y="398"/>
      <point x="825" y="493"/>
      <point x="644" y="607" type="curve"/>
      <point x="381" y="770" type="line"/>
      <point x="291" y="827"/>
      <point x="229" y="891"/>
      <point x="229" y="975" type="curve" smooth="yes"/>
      <point x="229" y="1082"/>
      <point x="313" y="1168"/>
      <point x="504" y="1168" type="curve" smooth="yes"/>
      <point x="606" y="1168"/>
      <point x="725" y="1137"/>
      <point x="818" y="1088" type="curve"/>
      <point x="818" y="1202" type="line"/>
      <point x="761" y="1229"/>
      <point x="644" y="1274"/>
      <point x="490" y="1274" type="curve" smooth="yes"/>
      <point x="235" y="1274"/>
      <point x="106" y="1136"/>
      <point x="106" y="968" type="curve" smooth="yes"/>
      <point x="106" y="852"/>
      <point x="191" y="758"/>
      <point x="310" y="685" type="curve" smooth="yes"/>
      <point x="584" y="515" type="line"/>
      <point x="699" y="445"/>
      <point x="758" y="359"/>
      <point x="758" y="274" type="curve" smooth="yes"/>
      <point x="758" y="156"/>
      <point x="674" y="73"/>
      <point x="505" y="73" type="curve" smooth="yes"/>
      <point x="350" y="73"/>
      <point x="235" y="115"/>
      <point x="138" y="180" type="curve"/>
      <point x="138" y="69" type="line"/>
      <point x="193" y="36"/>
      <point x="306" y="-34"/>
    </contour>
  </outline>
</glyph>
<glyph name="percent" format="1">
  <advance width="1398"/>
  <unicode hex="0025"/>
  <outline>
    <contour>
      <point x="299.29" y="0" type="line"/>
      <point x="380.29" y="0" type="line"/>
      <point x="1101.29" y="1241" type="line"/>
      <point x="1018.29" y="1241" type="line"/>
    </contour>
    <component base="o" xOffset="5.290" yOffset="737" xScale="0.60" yScale="0.60"/>
    <component base="o" xOffset="732.290" yOffset="11" xScale="0.60" yScale="0.60"/>
  </outline>
</glyph>
<glyph name="ampersand" format="1">
  <advance width="1284"/>
  <unicode hex="0026"/>
  <outline>
    <contour>
      <point x="556" y="-33" type="curve" smooth="yes"/>
      <point x="848" y="-33"/>
      <point x="1112" y="215"/>
      <point x="1192" y="410" type="curve"/>
      <point x="1102" y="457" type="line"/>
      <point x="1004" y="258"/>
      <point x="790" y="74"/>
      <point x="549" y="74" type="curve" smooth="yes"/>
      <point x="333" y="74"/>
      <point x="237" y="211"/>
      <point x="237" y="318" type="curve" smooth="yes"/>
      <point x="237" y="468.805"/>
      <point x="318.361" y="574.592"/>
      <point x="533" y="669" type="curve" smooth="yes"/>
      <point x="718.516" y="750.598"/>
      <point x="820.137" y="899.684"/>
      <point x="820.137" y="1029.03" type="curve" smooth="yes"/>
      <point x="820.137" y="1159.95"/>
      <point x="716.02" y="1270.64"/>
      <point x="489.403" y="1270.64" type="curve" smooth="yes"/>
      <point x="375.46" y="1270.64"/>
      <point x="204" y="1198.75"/>
      <point x="204" y="1031" type="curve" smooth="yes"/>
      <point x="204" y="951"/>
      <point x="246.396" y="862.364"/>
      <point x="360" y="739" type="curve" smooth="yes"/>
      <point x="1070" y="-32" type="line"/>
      <point x="1145" y="31" type="line"/>
      <point x="420" y="814" type="line" smooth="yes"/>
      <point x="340.66" y="899.687"/>
      <point x="311" y="972"/>
      <point x="311" y="1029" type="curve" smooth="yes"/>
      <point x="311" y="1145.72"/>
      <point x="416.812" y="1179.46"/>
      <point x="518.283" y="1179.46" type="curve" smooth="yes"/>
      <point x="652.305" y="1179.46"/>
      <point x="716.121" y="1112.48"/>
      <point x="716.121" y="1024.82" type="curve" smooth="yes"/>
      <point x="716.121" y="931.226"/>
      <point x="641.112" y="818.609"/>
      <point x="494" y="753" type="curve" smooth="yes"/>
      <point x="230.424" y="635.451"/>
      <point x="126" y="503.444"/>
      <point x="126" y="311" type="curve" smooth="yes"/>
      <point x="126" y="146"/>
      <point x="277" y="-33"/>
    </contour>
  </outline>
</glyph>
<glyph name="parenleft" format="1">
  <advance width="451"/>
  <unicode hex="0028"/>
  <outline>
    <contour>
      <point x="240" y="-35" type="line"/>
      <point x="146" y="164"/>
      <point x="99" y="396"/>
      <point x="99" y="653" type="curve" smooth="yes"/>
      <point x="99" y="910"/>
      <point x="146" y="1142"/>
      <point x="240" y="1341" type="curve"/>
      <point x="368" y="1341" type="line"/>
      <point x="275" y="1133"/>
      <point x="234" y="886"/>
      <point x="234" y="653" type="curve" smooth="yes"/>
      <point x="234" y="420"/>
      <point x="275" y="173"/>
      <point x="368" y="-35" type="curve"/>
    </contour>
  </outline>
</glyph>
<glyph name="parenright" format="1">
  <advance width="452"/>
  <unicode hex="0029"/>
  <outline>
    <contour>
      <point x="85" y="-35" type="line"/>
      <point x="178" y="173"/>
      <point x="219" y="420"/>
      <point x="219" y="653" type="curve" smooth="yes"/>
      <point x="219" y="886"/>
      <point x="178" y="1133"/>
      <point x="85" y="1341" type="curve"/>
      <point x="213" y="1341" type="line"/>
      <point x="307" y="1142"/>
      <point x="354" y="910"/>
      <point x="354" y="653" type="curve" smooth="yes"/>
      <point x="354" y="396"/>
      <point x="307" y="164"/>
      <point x="213" y="-35" type="curve"/>
    </contour>
  </outline>
</glyph>
<glyph name="asterisk" format="1">
  <advance width="1029"/>
  <unicode hex="002A"/>
  <outline>
    <contour>
      <point x="300" y="481" type="line"/>
      <point x="513" y="780" type="line"/>
      <point x="727" y="481" type="line"/>
      <point x="812" y="559" type="line"/>
      <point x="573" y="826" type="line"/>
      <point x="899" y="943" type="line"/>
      <point x="857" y="1048" type="line"/>
      <point x="548" y="895" type="line"/>
      <point x="578" y="1242" type="line"/>
      <point x="447" y="1242" type="line"/>
      <point x="478" y="895" type="line"/>
      <point x="170" y="1048" type="line"/>
      <point x="128" y="943" type="line"/>
      <point x="454" y="826" type="line"/>
      <point x="215" y="559" type="line"/>
    </contour>
  </outline>
</glyph>
<glyph name="plus" format="1">
  <advance width="837"/>
  <unicode hex="002B"/>
  <outline>
    <contour>
      <point x="371" y="336" type="line"/>
      <point x="464" y="336" type="line"/>
      <point x="464" y="559" type="line"/>
      <point x="688" y="559" type="line"/>
      <point x="688" y="652" type="line"/>
      <point x="464" y="652" type="line"/>
      <point x="464" y="876" type="line"/>
      <point x="371" y="876" type="line"/>
      <point x="371" y="652" type="line"/>
      <point x="148" y="652" type="line"/>
      <point x="148" y="559" type="line"/>
      <point x="371" y="559" type="line"/>
    </contour>
  </outline>
</glyph>
<glyph name="comma" format="1">
  <advance width="462"/>
  <unicode hex="002C"/>
  <outline>
    <contour>
      <point x="123" y="-153" type="curve"/>
      <point x="182" y="-153" type="line"/>
      <point x="291" y="-61"/>
      <point x="332" y="13"/>
      <point x="332" y="72" type="curve" smooth="yes"/>
      <point x="332" y="114"/>
      <point x="301" y="160"/>
      <point x="244" y="160" type="curve" smooth="yes"/>
      <point x="185" y="160"/>
      <point x="154" y="115"/>
      <point x="154" y="72" type="curve" smooth="yes"/>
      <point x="154" y="38"/>
      <point x="173" y="3"/>
      <point x="209" y="-10" type="curve"/>
      <point x="198" y="-60"/>
      <point x="160" y="-105"/>
    </contour>
  </outline>
</glyph>
<glyph name="hyphen" format="1">
  <advance width="847"/>
  <unicode hex="002D"/>
  <outline>
    <contour>
      <point x="153" y="559" type="line"/>
      <point x="693" y="559" type="line"/>
      <point x="693" y="652" type="line"/>
      <point x="153" y="652" type="line"/>
    </contour>
  </outline>
</glyph>
<glyph name="period" format="1">
  <advance width="475"/>
  <unicode hex="002E"/>
  <outline>
    <contour>
      <point x="239" y="-16" type="curve" smooth="yes"/>
      <point x="296" y="-16"/>
      <point x="327" y="28"/>
      <point x="327" y="72" type="curve" smooth="yes"/>
      <point x="327" y="114"/>
      <point x="296" y="160"/>
      <point x="239" y="160" type="curve" smooth="yes"/>
      <point x="180" y="160"/>
      <point x="149" y="115"/>
      <point x="149" y="72" type="curve" smooth="yes"/>
      <point x="149" y="28"/>
      <point x="180" y="-16"/>
    </contour>
  </outline>
</glyph>
<glyph name="slash" format="1">
  <advance width="805"/>
  <unicode hex="002F"/>
  <outline>
    <contour>
      <point x="62" y="0" type="line"/>
      <point x="180" y="0" type="line"/>
      <point x="740" y="1241" type="line"/>
      <point x="620" y="1241" type="line"/>
    </contour>
  </outline>
</glyph>
<glyph name="zero" format="1">
  <advance width="1239"/>
  <unicode hex="0030"/>
  <outline>
    <contour>
      <point x="620" y="73" type="curve" smooth="yes"/>
      <point x="377" y="73"/>
      <point x="231" y="222"/>
      <point x="231" y="619" type="curve" smooth="yes"/>
      <point x="231" y="1011"/>
      <point x="377" y="1167"/>
      <point x="620" y="1167" type="curve" smooth="yes"/>
      <point x="863" y="1167"/>
      <point x="1008" y="1011"/>
      <point x="1008" y="619" type="curve" smooth="yes"/>
      <point x="1008" y="222"/>
      <point x="863" y="73"/>
    </contour>
    <contour>
      <point x="620" y="-34" type="curve" smooth="yes"/>
      <point x="938" y="-34"/>
      <point x="1138" y="179"/>
      <point x="1138" y="619" type="curve" smooth="yes"/>
      <point x="1138" y="1081"/>
      <point x="944" y="1274"/>
      <point x="620" y="1274" type="curve" smooth="yes"/>
      <point x="296" y="1274"/>
      <point x="101" y="1081"/>
      <point x="101" y="619" type="curve" smooth="yes"/>
      <point x="101" y="179"/>
      <point x="302" y="-34"/>
    </contour>
  </outline>
</glyph>
<glyph name="one" format="1">
  <advance width="591"/>
  <unicode hex="0031"/>
  <outline>
    <contour>
      <point x="302" y="0" type="line"/>
      <point x="430" y="0" type="line"/>
      <point x="430" y="1258" type="line"/>
      <point x="430" y="1258"/>
      <point x="257" y="1128"/>
      <point x="53" y="1046" type="curve"/>
      <point x="53" y="943" type="line"/>
      <point x="126" y="965"/>
      <point x="221" y="1006"/>
      <point x="302" y="1057" type="curve"/>
    </contour>
  </outline>
</glyph>
<glyph name="two" format="1">
  <advance width="940"/>
  <unicode hex="0032"/>
  <outline>
    <contour>
      <point x="94" y="0" type="line"/>
      <point x="835" y="0" type="line"/>
      <point x="835" y="106" type="line"/>
      <point x="319" y="106" type="line"/>
      <point x="626" y="503" type="line" smooth="yes"/>
      <point x="741" y="652"/>
      <point x="823" y="763"/>
      <point x="823" y="920" type="curve" smooth="yes"/>
      <point x="823" y="1136"/>
      <point x="674" y="1274"/>
      <point x="473" y="1274" type="curve" smooth="yes"/>
      <point x="335" y="1274"/>
      <point x="197" y="1214"/>
      <point x="135" y="1160" type="curve"/>
      <point x="185" y="1058" type="line"/>
      <point x="234" y="1101"/>
      <point x="353" y="1167"/>
      <point x="469" y="1167" type="curve" smooth="yes"/>
      <point x="592" y="1167"/>
      <point x="698" y="1090"/>
      <point x="698" y="935" type="curve" smooth="yes"/>
      <point x="698" y="795.871"/>
      <point x="624.094" y="701.101"/>
      <point x="538" y="587" type="curve" smooth="yes"/>
    </contour>
  </outline>
</glyph>
<glyph name="three" format="1">
  <advance width="901"/>
  <unicode hex="0033"/>
  <outline>
    <contour>
      <point x="409" y="-33" type="curve" smooth="yes"/>
      <point x="657" y="-33"/>
      <point x="797" y="106"/>
      <point x="797" y="304" type="curve" smooth="yes"/>
      <point x="797" y="486"/>
      <point x="658" y="613"/>
      <point x="508" y="663" type="curve"/>
      <point x="632" y="703"/>
      <point x="771" y="799"/>
      <point x="771" y="961" type="curve" smooth="yes"/>
      <point x="771" y="1183"/>
      <point x="597" y="1275"/>
      <point x="418" y="1275" type="curve" smooth="yes"/>
      <point x="313" y="1275"/>
      <point x="195" y="1242"/>
      <point x="121" y="1192" type="curve"/>
      <point x="161" y="1097" type="line"/>
      <point x="222" y="1142"/>
      <point x="323" y="1173"/>
      <point x="410" y="1173" type="curve" smooth="yes"/>
      <point x="529" y="1173"/>
      <point x="654" y="1115"/>
      <point x="654" y="962" type="curve" smooth="yes"/>
      <point x="654" y="808"/>
      <point x="479" y="727"/>
      <point x="297" y="680" type="curve"/>
      <point x="297" y="640" type="line"/>
      <point x="586" y="567"/>
      <point x="678" y="455"/>
      <point x="678" y="299" type="curve" smooth="yes"/>
      <point x="678" y="161"/>
      <point x="567" y="70"/>
      <point x="419" y="70" type="curve" smooth="yes"/>
      <point x="342" y="70"/>
      <point x="245" y="94"/>
      <point x="151" y="142" type="curve"/>
      <point x="121" y="47" type="line"/>
      <point x="204" y="-3"/>
      <point x="323" y="-33"/>
    </contour>
  </outline>
</glyph>
<glyph name="four" format="1">
  <advance width="1077"/>
  <unicode hex="0034"/>
  <outline>
    <contour>
      <point x="666" y="0" type="line"/>
      <point x="794" y="0" type="line"/>
      <point x="794" y="257" type="line"/>
      <point x="984" y="257" type="line"/>
      <point x="984" y="363" type="line"/>
      <point x="794" y="363" type="line"/>
      <point x="794" y="1253" type="line"/>
      <point x="73" y="257" type="line"/>
      <point x="666" y="257" type="line"/>
    </contour>
    <contour>
      <point x="279" y="363" type="line"/>
      <point x="666" y="910" type="line"/>
      <point x="666" y="363" type="line"/>
    </contour>
  </outline>
</glyph>
<glyph name="five" format="1">
  <advance width="973"/>
  <unicode hex="0035"/>
  <outline>
    <contour>
      <point x="462" y="-34" type="curve" smooth="yes"/>
      <point x="703" y="-34"/>
      <point x="879" y="98"/>
      <point x="879" y="362" type="curve" smooth="yes"/>
      <point x="879" y="600"/>
      <point x="694" y="743"/>
      <point x="503" y="743" type="curve" smooth="yes"/>
      <point x="442" y="743"/>
      <point x="362" y="733"/>
      <point x="302" y="692" type="curve"/>
      <point x="306" y="814"/>
      <point x="319" y="1001"/>
      <point x="324" y="1122" type="curve"/>
      <point x="772" y="1122" type="line"/>
      <point x="783" y="1241" type="line"/>
      <point x="221" y="1241" type="line"/>
      <point x="191" y="581" type="line"/>
      <point x="294" y="564" type="line"/>
      <point x="341" y="623"/>
      <point x="418" y="640"/>
      <point x="489" y="640" type="curve" smooth="yes"/>
      <point x="653" y="640"/>
      <point x="760" y="499"/>
      <point x="760" y="355" type="curve" smooth="yes"/>
      <point x="760" y="182"/>
      <point x="645" y="73"/>
      <point x="465" y="73" type="curve" smooth="yes"/>
      <point x="325" y="73"/>
      <point x="216" y="141"/>
      <point x="169" y="182" type="curve"/>
      <point x="136" y="81" type="line"/>
      <point x="201" y="13"/>
      <point x="335" y="-34"/>
    </contour>
  </outline>
</glyph>
<glyph name="seven" format="1">
  <advance width="987"/>
  <unicode hex="0037"/>
  <outline>
    <contour>
      <point x="301" y="0" type="line"/>
      <point x="428" y="0" type="line"/>
      <point x="827" y="1142" type="line"/>
      <point x="827" y="1241" type="line"/>
      <point x="189" y="1241" type="line"/>
      <point x="189" y="1135" type="line"/>
      <point x="687" y="1135" type="line"/>
    </contour>
  </outline>
</glyph>
<glyph name="eight" format="1">
  <advance width="1176"/>
  <unicode hex="0038"/>
  <outline>
    <contour>
      <point x="602" y="-34" type="curve" smooth="yes"/>
      <point x="809" y="-34"/>
      <point x="977" y="86"/>
      <point x="977" y="302" type="curve" smooth="yes"/>
      <point x="977" y="432"/>
      <point x="909" y="577"/>
      <point x="690" y="664" type="curve"/>
      <point x="898" y="741"/>
      <point x="951" y="854"/>
      <point x="951" y="975" type="curve" smooth="yes"/>
      <point x="951" y="1129"/>
      <point x="833" y="1275"/>
      <point x="596" y="1275" type="curve" smooth="yes"/>
      <point x="378" y="1275"/>
      <point x="255" y="1129"/>
      <point x="255" y="970" type="curve" smooth="yes"/>
      <point x="255" y="846"/>
      <point x="351" y="729"/>
      <point x="492" y="657" type="curve"/>
      <point x="332" y="569"/>
      <point x="232" y="422"/>
      <point x="232" y="281" type="curve" smooth="yes"/>
      <point x="232" y="75"/>
      <point x="422" y="-34"/>
    </contour>
    <contour>
      <point x="570" y="710" type="curve"/>
      <point x="434" y="764"/>
      <point x="373" y="865"/>
      <point x="373" y="973" type="curve" smooth="yes"/>
      <point x="373" y="1093"/>
      <point x="469" y="1173"/>
      <point x="596" y="1173" type="curve" smooth="yes"/>
      <point x="724" y="1173"/>
      <point x="834" y="1092"/>
      <point x="834" y="972" type="curve" smooth="yes"/>
      <point x="834" y="864"/>
      <point x="773" y="791"/>
    </contour>
    <contour>
      <point x="596" y="70" type="curve" smooth="yes"/>
      <point x="473" y="70"/>
      <point x="362" y="148"/>
      <point x="362" y="293" type="curve" smooth="yes"/>
      <point x="362" y="435"/>
      <point x="444" y="551"/>
      <point x="591" y="605" type="curve"/>
      <point x="761" y="543"/>
      <point x="857" y="434"/>
      <point x="857" y="301" type="curve" smooth="yes"/>
      <point x="857" y="148"/>
      <point x="732" y="70"/>
    </contour>
  </outline>
</glyph>
<glyph name="nine" format="1">
  <advance width="1111"/>
  <unicode hex="0039"/>
  <outline>
    <contour>
      <point x="324" y="0" type="line"/>
      <point x="473" y="0" type="line"/>
      <point x="473" y="0"/>
      <point x="719" y="318"/>
      <point x="792" y="427" type="curve" smooth="yes"/>
      <point x="908" y="599"/>
      <point x="954" y="708"/>
      <point x="954" y="872" type="curve" smooth="yes"/>
      <point x="954" y="1097"/>
      <point x="811" y="1274"/>
      <point x="570" y="1274" type="curve" smooth="yes"/>
      <point x="342" y="1274"/>
      <point x="174" y="1104"/>
      <point x="174" y="882" type="curve" smooth="yes"/>
      <point x="174" y="653"/>
      <point x="360" y="510"/>
      <point x="549" y="510" type="curve" smooth="yes"/>
      <point x="609" y="510"/>
      <point x="693" y="528"/>
      <point x="741" y="563" type="curve"/>
    </contour>
    <contour>
      <point x="570" y="610" type="curve" smooth="yes"/>
      <point x="407" y="610"/>
      <point x="296" y="718"/>
      <point x="296" y="883" type="curve" smooth="yes"/>
      <point x="296" y="1039"/>
      <point x="410" y="1167"/>
      <point x="577" y="1167" type="curve" smooth="yes"/>
      <point x="744" y="1167"/>
      <point x="832" y="1043"/>
      <point x="832" y="889" type="curve" smooth="yes"/>
      <point x="832" y="736"/>
      <point x="751" y="610"/>
    </contour>
  </outline>
</glyph>
<glyph name="less" format="1">
  <advance width="990"/>
  <unicode hex="003C"/>
  <outline>
    <contour>
      <point x="914" y="-12" type="line"/>
      <point x="914" y="115" type="line"/>
      <point x="297" y="389" type="line"/>
      <point x="914" y="674" type="line"/>
      <point x="914" y="804" type="line"/>
      <point x="58" y="390" type="line"/>
    </contour>
  </outline>
</glyph>
<glyph name="equal" format="1">
  <advance width="917"/>
  <unicode hex="003D"/>
  <outline>
    <contour>
      <point x="153" y="410" type="line"/>
      <point x="763" y="410" type="line"/>
      <point x="763" y="503" type="line"/>
      <point x="153" y="503" type="line"/>
    </contour>
    <contour>
      <point x="153" y="647" type="line"/>
      <point x="763" y="647" type="line"/>
      <point x="763" y="740" type="line"/>
      <point x="153" y="740" type="line"/>
    </contour>
  </outline>
</glyph>
<glyph name="greater" format="1">
  <advance width="990"/>
  <unicode hex="003E"/>
  <outline>
    <contour>
      <point x="76" y="-12" type="line"/>
      <point x="932" y="402" type="line"/>
      <point x="76" y="804" type="line"/>
      <point x="76" y="677" type="line"/>
      <point x="693" y="403" type="line"/>
      <point x="76" y="118" type="line"/>
    </contour>
  </outline>
</glyph>
<glyph name="question" format="1">
  <advance width="857"/>
  <unicode hex="003F"/>
  <outline>
    <contour>
      <point x="230" y="355" type="curve"/>
      <point x="264" y="323" type="line"/>
      <point x="507" y="544"/>
      <point x="768" y="755"/>
      <point x="768" y="947" type="curve" smooth="yes"/>
      <point x="768" y="1162"/>
      <point x="605" y="1274"/>
      <point x="414" y="1274" type="curve" smooth="yes"/>
      <point x="276" y="1274"/>
      <point x="138" y="1214"/>
      <point x="76" y="1160" type="curve"/>
      <point x="129" y="1068" type="line"/>
      <point x="204" y="1124"/>
      <point x="300" y="1167"/>
      <point x="406" y="1167" type="curve" smooth="yes"/>
      <point x="524" y="1167"/>
      <point x="639" y="1101"/>
      <point x="639" y="954" type="curve" smooth="yes"/>
      <point x="639" y="809"/>
      <point x="564" y="726"/>
    </contour>
    <component base="period" xOffset="2"/>
  </outline>
</glyph>
<glyph name="at" format="1">
  <advance width="1384"/>
  <unicode hex="0040"/>
  <outline>
    <contour>
      <point x="695" y="-97" type="curve" smooth="yes"/>
      <point x="911" y="-97"/>
      <point x="1102" y="-9"/>
      <point x="1192" y="44" type="curve"/>
      <point x="1164" y="130" type="line"/>
      <point x="1076" y="78"/>
      <point x="903" y="-1"/>
      <point x="709" y="-1" type="curve" smooth="yes"/>
      <point x="388" y="-1"/>
      <point x="161" y="186"/>
      <point x="161" y="517" type="curve" smooth="yes"/>
      <point x="161" y="782"/>
      <point x="306" y="1065"/>
      <point x="737" y="1065" type="curve" smooth="yes"/>
      <point x="981" y="1065"/>
      <point x="1189" y="922"/>
      <point x="1189" y="603" type="curve" smooth="yes"/>
      <point x="1189" y="391"/>
      <point x="1107" y="279"/>
      <point x="1007" y="279" type="curve" smooth="yes"/>
      <point x="928" y="279"/>
      <point x="921" y="360"/>
      <point x="921" y="458" type="curve" smooth="yes"/>
      <point x="921" y="889" type="line"/>
      <point x="880" y="893"/>
      <point x="842" y="895"/>
      <point x="807" y="895" type="curve" smooth="yes"/>
      <point x="357" y="895"/>
      <point x="345" y="573"/>
      <point x="351" y="477" type="curve" smooth="yes"/>
      <point x="359" y="352"/>
      <point x="441" y="202"/>
      <point x="604" y="202" type="curve" smooth="yes"/>
      <point x="655" y="202"/>
      <point x="743" y="220"/>
      <point x="810" y="342" type="curve"/>
      <point x="838" y="231"/>
      <point x="913" y="200"/>
      <point x="997" y="200" type="curve" smooth="yes"/>
      <point x="1144" y="200"/>
      <point x="1301" y="331"/>
      <point x="1301" y="603" type="curve" smooth="yes"/>
      <point x="1301" y="894"/>
      <point x="1130" y="1164"/>
      <point x="737" y="1164" type="curve" smooth="yes"/>
      <point x="225" y="1164"/>
      <point x="53" y="822"/>
      <point x="53" y="517" type="curve" smooth="yes"/>
      <point x="53" y="119"/>
      <point x="353" y="-97"/>
    </contour>
    <contour>
      <point x="608" y="290" type="curve" smooth="yes"/>
      <point x="524" y="290"/>
      <point x="471" y="369"/>
      <point x="463" y="465" type="curve" smooth="yes"/>
      <point x="453" y="590"/>
      <point x="473" y="812"/>
      <point x="793" y="812" type="curve"/>
      <point x="793" y="405" type="line"/>
      <point x="754" y="350"/>
      <point x="693" y="290"/>
    </contour>
  </outline>
</glyph>
<glyph name="A" format="1">
  <advance width="1284"/>
  <unicode hex="0041"/>
  <outline>
    <contour>
      <point x="130" y="0" type="line"/>
      <point x="259" y="0" type="line"/>
      <point x="392" y="299" type="line"/>
      <point x="973" y="299" type="line"/>
      <point x="1110" y="0" type="line"/>
      <point x="1237" y="0" type="line"/>
      <point x="686" y="1259" type="line"/>
    </contour>
    <contour>
      <point x="431" y="392" type="line"/>
      <point x="685" y="1009" type="line"/>
      <point x="946" y="392" type="line"/>
    </contour>
    <contour>
      <point x="642" y="1241" type="move" name="top"/>
    </contour>
    <contour>
      <point x="1156" y="10" type="move" name="ogonek"/>
    </contour>
  </outline>
</glyph>
<glyph name="B" format="1">
  <advance width="1079"/>
  <unicode hex="0042"/>
  <outline>
    <contour>
      <point x="161" y="0" type="line"/>
      <point x="511" y="0" type="line" smooth="yes"/>
      <point x="840" y="0"/>
      <point x="998" y="109"/>
      <point x="998" y="354" type="curve" smooth="yes"/>
      <point x="998" y="531"/>
      <point x="836" y="651"/>
      <point x="701" y="676" type="curve"/>
      <point x="859" y="712"/>
      <point x="919" y="842"/>
      <point x="919" y="938" type="curve" smooth="yes"/>
      <point x="919" y="1130"/>
      <point x="799" y="1241"/>
      <point x="473" y="1241" type="curve" smooth="yes"/>
      <point x="161" y="1241" type="line"/>
    </contour>
    <contour>
      <point x="289" y="106" type="line"/>
      <point x="289" y="622" type="line"/>
      <point x="484" y="622" type="line" smooth="yes"/>
      <point x="723" y="622"/>
      <point x="876" y="520"/>
      <point x="876" y="351" type="curve" smooth="yes"/>
      <point x="876" y="176"/>
      <point x="764" y="106"/>
      <point x="503" y="106" type="curve" smooth="yes"/>
    </contour>
    <contour>
      <point x="289" y="728" type="line"/>
      <point x="289" y="1136" type="line"/>
      <point x="468" y="1136" type="line" smooth="yes"/>
      <point x="674" y="1136"/>
      <point x="806" y="1103"/>
      <point x="806" y="940" type="curve" smooth="yes"/>
      <point x="806" y="726"/>
      <point x="582" y="728"/>
      <point x="471" y="728" type="curve" smooth="yes"/>
    </contour>
  </outline>
</glyph>
<glyph name="C" format="1">
  <advance width="1287"/>
  <unicode hex="0043"/>
  <outline>
    <contour>
      <point x="776" y="-34" type="curve" smooth="yes"/>
      <point x="948" y="-34"/>
      <point x="1106" y="24"/>
      <point x="1175" y="57" type="curve"/>
      <point x="1175" y="170" type="line"/>
      <point x="1065" y="114"/>
      <point x="910" y="72"/>
      <point x="785" y="72" type="curve" smooth="yes"/>
      <point x="455" y="72"/>
      <point x="229" y="270"/>
      <point x="229" y="622" type="curve" smooth="yes"/>
      <point x="229" y="976"/>
      <point x="457" y="1168"/>
      <point x="778" y="1168" type="curve" smooth="yes"/>
      <point x="924" y="1168"/>
      <point x="1064" y="1121"/>
      <point x="1175" y="1064" type="curve"/>
      <point x="1175" y="1169" type="line"/>
      <point x="1110" y="1208"/>
      <point x="950" y="1274"/>
      <point x="778" y="1274" type="curve" smooth="yes"/>
      <point x="388" y="1274"/>
      <point x="100" y="1030"/>
      <point x="100" y="622" type="curve" smooth="yes"/>
      <point x="100" y="216"/>
      <point x="380" y="-34"/>
    </contour>
    <contour>
      <point x="644" y="1241" type="move" name="top"/>
    </contour>
    <contour>
      <point x="644" y="0" type="move" name="bottom"/>
    </contour>
  </outline>
</glyph>
<glyph name="D" format="1">
  <advance width="1398"/>
  <unicode hex="0044"/>
  <outline>
    <contour>
      <point x="161" y="0" type="line"/>
      <point x="643" y="0" type="line" smooth="yes"/>
      <point x="1067" y="0"/>
      <point x="1298" y="296"/>
      <point x="1298" y="628" type="curve" smooth="yes"/>
      <point x="1298" y="991"/>
      <point x="1086" y="1241"/>
      <point x="673" y="1241" type="curve" smooth="yes"/>
      <point x="161" y="1241" type="line"/>
    </contour>
    <contour>
      <point x="289" y="106" type="line"/>
      <point x="289" y="1135" type="line"/>
      <point x="675" y="1135" type="line" smooth="yes"/>
      <point x="970" y="1135"/>
      <point x="1169" y="986"/>
      <point x="1169" y="624" type="curve" smooth="yes"/>
      <point x="1169" y="324"/>
      <point x="953" y="106"/>
      <point x="625" y="106" type="curve" smooth="yes"/>
    </contour>
    <contour>
      <point x="699" y="1241" type="move" name="top"/>
    </contour>
    <contour>
      <point x="699" y="621" type="move" name="center"/>
    </contour>
  </outline>
</glyph>
<glyph name="E" format="1">
  <advance width="973"/>
  <unicode hex="0045"/>
  <outline>
    <contour>
      <point x="198" y="0" type="line"/>
      <point x="928" y="0" type="line"/>
      <point x="928" y="106" type="line"/>
      <point x="324" y="106" type="line"/>
      <point x="324" y="588" type="line"/>
      <point x="855" y="588" type="line"/>
      <point x="855" y="694" type="line"/>
      <point x="326" y="694" type="line"/>
      <point x="326" y="1135" type="line"/>
      <point x="918" y="1135" type="line"/>
      <point x="918" y="1241" type="line"/>
      <point x="198" y="1241" type="line"/>
    </contour>
    <contour>
      <point x="487" y="1241" type="move" name="top"/>
    </contour>
    <contour>
      <point x="487" y="0" type="move" name="bottom"/>
    </contour>
    <contour>
      <point x="876" y="10" type="move" name="ogonek"/>
    </contour>
  </outline>
</glyph>
<glyph name="G" format="1">
  <advance width="1384"/>
  <unicode hex="0047"/>
  <outline>
    <contour>
      <point x="759" y="-34" type="curve" smooth="yes"/>
      <point x="1029" y="-34"/>
      <point x="1159" y="29"/>
      <point x="1287" y="102" type="curve"/>
      <point x="1287" y="660" type="line"/>
      <point x="806" y="660" type="line"/>
      <point x="806" y="555" type="line"/>
      <point x="1168" y="555" type="line"/>
      <point x="1168" y="158" type="line"/>
      <point x="1168" y="158"/>
      <point x="1024" y="72"/>
      <point x="778" y="72" type="curve" smooth="yes"/>
      <point x="502" y="72"/>
      <point x="230" y="241"/>
      <point x="230" y="621" type="curve" smooth="yes"/>
      <point x="230" y="992"/>
      <point x="477" y="1168"/>
      <point x="781" y="1168" type="curve" smooth="yes"/>
      <point x="908" y="1168"/>
      <point x="1046" y="1137"/>
      <point x="1179" y="1077" type="curve"/>
      <point x="1179" y="1187" type="line"/>
      <point x="1111" y="1216"/>
      <point x="943" y="1274"/>
      <point x="771" y="1274" type="curve" smooth="yes"/>
      <point x="404" y="1274"/>
      <point x="100" y="1025"/>
      <point x="100" y="621" type="curve" smooth="yes"/>
      <point x="100" y="190"/>
      <point x="440" y="-34"/>
    </contour>
    <contour>
      <point x="692" y="1241" type="move" name="top"/>
    </contour>
    <contour>
      <point x="692" y="0" type="move" name="bottom"/>
    </contour>
  </outline>
</glyph>
<glyph name="H" format="1">
  <advance width="1344"/>
  <unicode hex="0048"/>
  <outline>
    <contour>
      <point x="161" y="0" type="line"/>
      <point x="289" y="0" type="line"/>
      <point x="289" y="603" type="line"/>
      <point x="1055" y="603" type="line"/>
      <point x="1055" y="0" type="line"/>
      <point x="1183" y="0" type="line"/>
      <point x="1183" y="1241" type="line"/>
      <point x="1055" y="1241" type="line"/>
      <point x="1055" y="704" type="line"/>
      <point x="289" y="704" type="line"/>
      <point x="289" y="1241" type="line"/>
      <point x="161" y="1241" type="line"/>
    </contour>
    <contour>
      <point x="672" y="1241" type="move" name="top"/>
    </contour>
    <contour>
      <point x="672" y="621" type="move" name="center"/>
    </contour>
  </outline>
</glyph>
<glyph name="J" format="1">
  <advance width="988"/>
  <unicode hex="004A"/>
  <outline>
    <contour>
      <point x="409" y="-16" type="curve" smooth="yes"/>
      <point x="670" y="-16"/>
      <point x="753" y="124"/>
      <point x="753" y="446" type="curve" smooth="yes"/>
      <point x="753" y="1242" type="line"/>
      <point x="625" y="1242" type="line"/>
      <point x="625" y="429" type="line" smooth="yes"/>
      <point x="625" y="166"/>
      <point x="546" y="88"/>
      <point x="409" y="88" type="curve" smooth="yes"/>
      <point x="342" y="88"/>
      <point x="271" y="106"/>
      <point x="173" y="151" type="curve"/>
      <point x="173" y="47" type="line"/>
      <point x="204" y="31"/>
      <point x="292" y="-16"/>
    </contour>
    <contour>
      <point x="494" y="1241" type="move" name="top"/>
    </contour>
  </outline>
</glyph>
<glyph name="K" format="1">
  <advance width="1105"/>
  <unicode hex="004B"/>
  <outline>
    <contour>
      <point x="161" y="0" type="line"/>
      <point x="289" y="0" type="line"/>
      <point x="289" y="618" type="line"/>
      <point x="922" y="0" type="line"/>
      <point x="1083" y="0" type="line"/>
      <point x="424" y="642" type="line"/>
      <point x="1036" y="1241" type="line"/>
      <point x="879" y="1241" type="line"/>
      <point x="289" y="668" type="line"/>
      <point x="289" y="1241" type="line"/>
      <point x="161" y="1241" type="line"/>
    </contour>
    <contour>
      <point x="553" y="1241" type="move" name="top"/>
    </contour>
    <contour>
      <point x="553" y="0" type="move" name="bottom"/>
    </contour>
  </outline>
</glyph>
<glyph name="L" format="1">
  <advance width="1009"/>
  <unicode hex="004C"/>
  <outline>
    <contour>
      <point x="198" y="0" type="line"/>
      <point x="871" y="0" type="line"/>
      <point x="871" y="106" type="line"/>
      <point x="326" y="106" type="line"/>
      <point x="326" y="1241" type="line"/>
      <point x="198" y="1241" type="line"/>
    </contour>
    <contour>
      <point x="505" y="1241" type="move" name="top"/>
    </contour>
    <contour>
      <point x="505" y="0" type="move" name="bottom"/>
    </contour>
  </outline>
</glyph>
<glyph name="M" format="1">
  <advance width="1697"/>
  <unicode hex="004D"/>
  <outline>
    <contour>
      <point x="849" y="28" type="line"/>
      <point x="1333" y="902" type="line"/>
      <point x="1472" y="0" type="line"/>
      <point x="1603" y="0" type="line"/>
      <point x="1399" y="1275" type="line"/>
      <point x="848" y="266" type="line"/>
      <point x="298" y="1275" type="line"/>
      <point x="94" y="0" type="line"/>
      <point x="225" y="0" type="line"/>
      <point x="364" y="902" type="line"/>
    </contour>
  </outline>
</glyph>
<glyph name="N" format="1">
  <advance width="1367"/>
  <unicode hex="004E"/>
  <outline>
    <contour>
      <point x="1206" y="-31" type="line"/>
      <point x="1206" y="1241" type="line"/>
      <point x="1078" y="1241" type="line"/>
      <point x="1078" y="270" type="line"/>
      <point x="161" y="1263" type="line"/>
      <point x="161" y="0" type="line"/>
      <point x="289" y="0" type="line"/>
      <point x="289" y="956" type="line"/>
    </contour>
    <contour>
      <point x="684" y="1241" type="move" name="top"/>
    </contour>
    <contour>
      <point x="684" y="0" type="move" name="bottom"/>
    </contour>
  </outline>
</glyph>
<glyph name="O" format="1">
  <advance width="1533"/>
  <unicode hex="004F"/>
  <outline>
    <contour>
      <point x="765" y="72" type="curve" smooth="yes"/>
      <point x="491" y="72"/>
      <point x="230" y="245"/>
      <point x="230" y="619" type="curve" smooth="yes"/>
      <point x="230" y="994"/>
      <point x="478" y="1168"/>
      <point x="765" y="1168" type="curve" smooth="yes"/>
      <point x="1050" y="1168"/>
      <point x="1303" y="994"/>
      <point x="1303" y="618" type="curve" smooth="yes"/>
      <point x="1303" y="246"/>
      <point x="1023" y="72"/>
    </contour>
    <contour>
      <point x="766" y="-34" type="curve" smooth="yes"/>
      <point x="1104" y="-34"/>
      <point x="1433" y="182"/>
      <point x="1433" y="623" type="curve" smooth="yes"/>
      <point x="1433" y="1058"/>
      <point x="1104" y="1274"/>
      <point x="765" y="1274" type="curve" smooth="yes"/>
      <point x="428" y="1274"/>
      <point x="100" y="1058"/>
      <point x="100" y="619" type="curve" smooth="yes"/>
      <point x="100" y="182"/>
      <point x="428" y="-34"/>
    </contour>
    <contour>
      <point x="767" y="1241" type="move" name="top"/>
    </contour>
  </outline>
</glyph>
<glyph name="P" format="1">
  <advance width="1063"/>
  <unicode hex="0050"/>
  <outline>
    <contour>
      <point x="217" y="0" type="line"/>
      <point x="345" y="0" type="line"/>
      <point x="345" y="525" type="line"/>
      <point x="534" y="525" type="line" smooth="yes"/>
      <point x="815" y="525"/>
      <point x="1013" y="606"/>
      <point x="1013" y="887" type="curve" smooth="yes"/>
      <point x="1013" y="1127"/>
      <point x="841" y="1242"/>
      <point x="538" y="1242" type="curve" smooth="yes"/>
      <point x="217" y="1242" type="line"/>
    </contour>
    <contour>
      <point x="345" y="627" type="line"/>
      <point x="345" y="1140" type="line"/>
      <point x="543" y="1140" type="line" smooth="yes"/>
      <point x="796" y="1140"/>
      <point x="885" y="1032"/>
      <point x="885" y="882" type="curve" smooth="yes"/>
      <point x="885" y="691"/>
      <point x="754" y="627"/>
      <point x="548" y="627" type="curve" smooth="yes"/>
    </contour>
  </outline>
</glyph>
<glyph name="Q" format="1">
  <advance width="1533"/>
  <unicode hex="0051"/>
  <outline>
    <contour>
      <point x="1243" y="-148" type="line"/>
      <point x="1352" y="-64" type="line"/>
      <point x="977" y="267" type="line"/>
      <point x="911" y="193" type="line"/>
    </contour>
    <component base="O"/>
  </outline>
</glyph>
<glyph name="R" format="1">
  <advance width="1063"/>
  <unicode hex="0052"/>
  <outline>
    <contour>
      <point x="217" y="0" type="line"/>
      <point x="345" y="0" type="line"/>
      <point x="345" y="575" type="line"/>
      <point x="388" y="575" type="line"/>
      <point x="881" y="0" type="line"/>
      <point x="1038" y="0" type="line"/>
      <point x="528" y="576" type="line"/>
      <point x="785" y="584"/>
      <point x="971" y="667"/>
      <point x="971" y="913" type="curve" smooth="yes"/>
      <point x="971" y="1134"/>
      <point x="803" y="1241"/>
      <point x="500" y="1241" type="curve" smooth="yes"/>
      <point x="217" y="1241" type="line"/>
    </contour>
    <contour>
      <point x="345" y="677" type="line"/>
      <point x="345" y="1140" type="line"/>
      <point x="505" y="1140" type="line" smooth="yes"/>
      <point x="758" y="1140"/>
      <point x="843" y="1058"/>
      <point x="843" y="908" type="curve" smooth="yes"/>
      <point x="843" y="717"/>
      <point x="688" y="677"/>
      <point x="460" y="677" type="curve" smooth="yes"/>
    </contour>
    <contour>
      <point x="532" y="1241" type="move" name="top"/>
    </contour>
    <contour>
      <point x="532" y="0" type="move" name="bottom"/>
    </contour>
  </outline>
</glyph>
<glyph name="S" format="1">
  <advance width="956"/>
  <unicode hex="0053"/>
  <outline>
    <contour>
      <point x="508" y="-34" type="curve" smooth="yes"/>
      <point x="699" y="-34"/>
      <point x="883" y="63"/>
      <point x="883" y="281" type="curve" smooth="yes"/>
      <point x="883" y="398"/>
      <point x="823" y="495"/>
      <point x="642" y="609" type="curve"/>
      <point x="379" y="772" type="line"/>
      <point x="289" y="829"/>
      <point x="224" y="891"/>
      <point x="224" y="975" type="curve" smooth="yes"/>
      <point x="224" y="1082"/>
      <point x="313" y="1168"/>
      <point x="504" y="1168" type="curve" smooth="yes"/>
      <point x="606" y="1168"/>
      <point x="725" y="1137"/>
      <point x="818" y="1088" type="curve"/>
      <point x="818" y="1202" type="line"/>
      <point x="761" y="1229"/>
      <point x="644" y="1274"/>
      <point x="490" y="1274" type="curve" smooth="yes"/>
      <point x="235" y="1274"/>
      <point x="106" y="1136"/>
      <point x="106" y="968" type="curve" smooth="yes"/>
      <point x="106" y="852"/>
      <point x="190" y="754"/>
      <point x="309" y="681" type="curve" smooth="yes"/>
      <point x="583" y="511" type="line"/>
      <point x="698" y="441"/>
      <point x="766" y="359"/>
      <point x="766" y="274" type="curve" smooth="yes"/>
      <point x="766" y="156"/>
      <point x="674" y="73"/>
      <point x="505" y="73" type="curve" smooth="yes"/>
      <point x="350" y="73"/>
      <point x="235" y="115"/>
      <point x="138" y="180" type="curve"/>
      <point x="138" y="69" type="line"/>
      <point x="193" y="36"/>
      <point x="306" y="-34"/>
    </contour>
    <contour>
      <point x="478" y="1241" type="move" name="top"/>
    </contour>
    <contour>
      <point x="478" y="0" type="move" name="bottom"/>
    </contour>
  </outline>
</glyph>
<glyph name="T" format="1">
  <advance width="1122"/>
  <unicode hex="0054"/>
  <outline>
    <contour>
      <point x="493" y="0" type="line"/>
      <point x="621" y="0" type="line"/>
      <point x="621" y="1135" type="line"/>
      <point x="1016" y="1135" type="line"/>
      <point x="1016" y="1241" type="line"/>
      <point x="98" y="1241" type="line"/>
      <point x="98" y="1135" type="line"/>
      <point x="493" y="1135" type="line"/>
    </contour>
    <contour>
      <point x="561" y="1241" type="move" name="top"/>
    </contour>
    <contour>
      <point x="561" y="0" type="move" name="bottom"/>
    </contour>
    <contour>
      <point x="561" y="621" type="move" name="center"/>
    </contour>
  </outline>
</glyph>
<glyph name="U" format="1">
  <advance width="1402"/>
  <unicode hex="0055"/>
  <outline>
    <contour>
      <point x="690" y="-33" type="curve" smooth="yes"/>
      <point x="1007" y="-33"/>
      <point x="1238" y="142"/>
      <point x="1238" y="493" type="curve" smooth="yes"/>
      <point x="1238" y="1241" type="line"/>
      <point x="1110" y="1241" type="line"/>
      <point x="1110" y="480" type="line" smooth="yes"/>
      <point x="1110" y="193"/>
      <point x="941" y="73"/>
      <point x="690" y="73" type="curve" smooth="yes"/>
      <point x="439" y="73"/>
      <point x="270" y="193"/>
      <point x="270" y="480" type="curve" smooth="yes"/>
      <point x="270" y="1241" type="line"/>
      <point x="142" y="1241" type="line"/>
      <point x="142" y="493" type="line" smooth="yes"/>
      <point x="142" y="142"/>
      <point x="373" y="-33"/>
    </contour>
    <contour>
      <point x="701" y="1241" type="move" name="top"/>
    </contour>
    <contour>
      <point x="1262" y="10" type="move" name="ogonek"/>
    </contour>
  </outline>
</glyph>
<glyph name="V" format="1">
  <advance width="1264"/>
  <unicode hex="0056"/>
  <outline>
    <contour>
      <point x="644" y="-18" type="line"/>
      <point x="1211" y="1241" type="line"/>
      <point x="1068" y="1241" type="line"/>
      <point x="643" y="268" type="line"/>
      <point x="190" y="1241" type="line"/>
      <point x="53" y="1241" type="line"/>
    </contour>
  </outline>
</glyph>
<glyph name="W" format="1">
  <advance width="1757"/>
  <unicode hex="0057"/>
  <outline>
    <contour>
      <point x="453" y="-20" type="line"/>
      <point x="788" y="901" type="line"/>
      <point x="1158" y="-19" type="line"/>
      <point x="1637" y="1241" type="line"/>
      <point x="1494" y="1241" type="line"/>
      <point x="1152" y="300" type="line"/>
      <point x="786" y="1222" type="line"/>
      <point x="446" y="300" type="line"/>
      <point x="76" y="1241" type="line"/>
      <point x="-61" y="1241" type="line"/>
    </contour>
    <contour>
      <point x="879" y="1241" type="move" name="top"/>
    </contour>
  </outline>
</glyph>
<glyph name="X" format="1">
  <advance width="1519"/>
  <unicode hex="0058"/>
  <outline>
    <contour>
      <point x="1350" y="0" type="line"/>
      <point x="1502" y="0" type="line"/>
      <point x="354" y="1241" type="line"/>
      <point x="211" y="1241" type="line"/>
    </contour>
    <contour>
      <point x="207" y="0" type="line"/>
      <point x="369" y="0" type="line"/>
      <point x="1450" y="1241" type="line"/>
      <point x="1293" y="1241" type="line"/>
    </contour>
  </outline>
</glyph>
<glyph name="Y" format="1">
  <advance width="1259"/>
  <unicode hex="0059"/>
  <outline>
    <contour>
      <point x="570" y="0" type="line"/>
      <point x="698" y="0" type="line"/>
      <point x="698" y="475" type="line"/>
      <point x="1112" y="1241" type="line"/>
      <point x="976" y="1241" type="line"/>
      <point x="636" y="592" type="line"/>
      <point x="272" y="1241" type="line"/>
      <point x="143" y="1241" type="line"/>
      <point x="570" y="479" type="line"/>
    </contour>
    <contour>
      <point x="630" y="1241" type="move" name="top"/>
    </contour>
  </outline>
</glyph>
<glyph name="Z" format="1">
  <advance width="1059"/>
  <unicode hex="005A"/>
  <outline>
    <contour>
      <point x="117" y="0" type="line"/>
      <point x="907" y="0" type="line"/>
      <point x="907" y="106" type="line"/>
      <point x="313" y="106" type="line"/>
      <point x="899" y="1241" type="line"/>
      <point x="150" y="1241" type="line"/>
      <point x="150" y="1135" type="line"/>
      <point x="712" y="1135" type="line"/>
    </contour>
    <contour>
      <point x="530" y="1241" type="move" name="top"/>
    </contour>
  </outline>
</glyph>
<glyph name="bracketleft" format="1">
  <advance width="705"/>
  <unicode hex="005B"/>
  <outline>
    <contour>
      <point x="150" y="0" type="line"/>
      <point x="563" y="0" type="line"/>
      <point x="563" y="106" type="line"/>
      <point x="278" y="106" type="line"/>
      <point x="278" y="1135" type="line"/>
      <point x="563" y="1135" type="line"/>
      <point x="563" y="1241" type="line"/>
      <point x="150" y="1241" type="line"/>
    </contour>
  </outline>
</glyph>
<glyph name="backslash" format="1">
  <advance width="805"/>
  <unicode hex="005C"/>
  <outline>
    <contour>
      <point x="62" y="0" type="line"/>
      <point x="180" y="0" type="line"/>
      <point x="740" y="1241" type="line"/>
      <point x="620" y="1241" type="line"/>
    </contour>
  </outline>
</glyph>
<glyph name="bracketright" format="1">
  <advance width="705"/>
  <unicode hex="005D"/>
  <outline>
    <contour>
      <point x="143" y="0" type="line"/>
      <point x="556" y="0" type="line"/>
      <point x="556" y="1241" type="line"/>
      <point x="143" y="1241" type="line"/>
      <point x="143" y="1135" type="line"/>
      <point x="428" y="1135" type="line"/>
      <point x="428" y="106" type="line"/>
      <point x="143" y="106" type="line"/>
    </contour>
  </outline>
</glyph>
<glyph name="underscore" format="1">
  <advance width="980"/>
  <unicode hex="005F"/>
  <outline>
    <contour>
      <point x="153" y="-93" type="line"/>
      <point x="826" y="-93" type="line"/>
      <point x="826" y="0" type="line"/>
      <point x="153" y="0" type="line"/>
    </contour>
  </outline>
</glyph>
<glyph name="grave" format="1">
  <advance width="442"/>
  <unicode hex="0060"/>
  <outline>
    <contour>
      <point x="353" y="116" type="curve" smooth="yes"/>
      <point x="346" y="116"/>
      <point x="339" y="120"/>
      <point x="332" y="128" type="curve" smooth="yes"/>
      <point x="92" y="411" type="line" smooth="yes"/>
      <point x="80" y="425"/>
      <point x="75" y="439"/>
      <point x="75" y="452" type="curve" smooth="yes"/>
      <point x="75" y="484"/>
      <point x="107" y="511"/>
      <point x="140" y="511" type="curve" smooth="yes"/>
      <point x="162" y="511"/>
      <point x="185" y="499"/>
      <point x="200" y="471" type="curve" smooth="yes"/>
      <point x="367" y="151" type="line" smooth="yes"/>
      <point x="370" y="145"/>
      <point x="371" y="140"/>
      <point x="371" y="136" type="curve" smooth="yes"/>
      <point x="371" y="124"/>
      <point x="363" y="116"/>
    </contour>
    <contour>
      <point x="223" y="824" type="move" name="_top"/>
    </contour>
  </outline>
</glyph>
<glyph name="a" format="1">
  <advance width="899"/>
  <unicode hex="0061"/>
  <outline>
    <contour>
      <point x="387" y="79" type="curve" smooth="yes"/>
      <point x="303" y="79"/>
      <point x="255" y="137"/>
      <point x="255" y="208" type="curve" smooth="yes"/>
      <point x="255" y="270"/>
      <point x="276" y="340"/>
      <point x="419" y="374" type="curve" smooth="yes"/>
      <point x="600" y="418" type="line"/>
      <point x="600" y="177" type="line"/>
      <point x="552" y="125"/>
      <point x="472" y="79"/>
    </contour>
    <contour>
      <point x="368" y="-16" type="curve" smooth="yes"/>
      <point x="415" y="-16"/>
      <point x="510" y="-15"/>
      <point x="624" y="100" type="curve"/>
      <point x="624" y="100"/>
      <point x="661" y="-7"/>
      <point x="808" y="-7" type="curve"/>
      <point x="807" y="-7"/>
      <point x="808" y="-7"/>
      <point x="813" y="-7" type="curve"/>
      <point x="839" y="99" type="line"/>
      <point x="824" y="99" type="line" smooth="yes"/>
      <point x="780" y="99"/>
      <point x="728" y="134"/>
      <point x="728" y="209" type="curve" smooth="yes"/>
      <point x="728" y="572" type="line" smooth="yes"/>
      <point x="728" y="760"/>
      <point x="582" y="840"/>
      <point x="439" y="840" type="curve" smooth="yes"/>
      <point x="303" y="840"/>
      <point x="185" y="790"/>
      <point x="132" y="760" type="curve"/>
      <point x="168" y="670" type="line"/>
      <point x="226" y="699"/>
      <point x="325" y="742"/>
      <point x="410" y="742" type="curve" smooth="yes"/>
      <point x="499" y="742"/>
      <point x="601" y="723"/>
      <point x="601" y="545" type="curve" smooth="yes"/>
      <point x="601" y="500" type="line"/>
      <point x="433" y="462" type="line" smooth="yes"/>
      <point x="140" y="396"/>
      <point x="128" y="266"/>
      <point x="128" y="193" type="curve" smooth="yes"/>
      <point x="128" y="68"/>
      <point x="233" y="-16"/>
    </contour>
    <contour>
      <point x="450" y="824" type="move" name="top"/>
    </contour>
    <contour>
      <point x="809" y="10" type="move" name="ogonek"/>
    </contour>
  </outline>
</glyph>
<glyph name="b" format="1">
  <advance width="1074"/>
  <unicode hex="0062"/>
  <outline>
    <contour>
      <point x="500" y="-16" type="curve" smooth="yes"/>
      <point x="786" y="-16"/>
      <point x="966" y="154"/>
      <point x="966" y="411" type="curve" smooth="yes"/>
      <point x="966" y="650"/>
      <point x="811" y="840"/>
      <point x="576" y="840" type="curve" smooth="yes"/>
      <point x="397" y="840"/>
      <point x="293" y="752"/>
      <point x="293" y="752" type="curve"/>
      <point x="293" y="1242" type="line"/>
      <point x="165" y="1220" type="line"/>
      <point x="165" y="43" type="line"/>
      <point x="290" y="4"/>
      <point x="405" y="-16"/>
    </contour>
    <contour>
      <point x="502" y="81" type="curve" smooth="yes"/>
      <point x="406" y="81"/>
      <point x="332" y="99"/>
      <point x="293" y="108" type="curve"/>
      <point x="293" y="657" type="line"/>
      <point x="293" y="657"/>
      <point x="437" y="742"/>
      <point x="562" y="742" type="curve" smooth="yes"/>
      <point x="766" y="742"/>
      <point x="839" y="569"/>
      <point x="839" y="402" type="curve" smooth="yes"/>
      <point x="839" y="191"/>
      <point x="694" y="81"/>
    </contour>
  </outline>
</glyph>
<glyph name="c" format="1">
  <advance width="896"/>
  <unicode hex="0063"/>
  <outline>
    <contour>
      <point x="570" y="-16" type="curve" smooth="yes"/>
      <point x="683" y="-16"/>
      <point x="764" y="20"/>
      <point x="805" y="43" type="curve"/>
      <point x="805" y="146" type="line"/>
      <point x="779" y="132"/>
      <point x="686" y="81"/>
      <point x="563" y="81" type="curve" smooth="yes"/>
      <point x="332" y="81"/>
      <point x="228" y="235"/>
      <point x="228" y="414" type="curve" smooth="yes"/>
      <point x="228" y="583"/>
      <point x="343" y="742"/>
      <point x="569" y="742" type="curve" smooth="yes"/>
      <point x="712" y="742"/>
      <point x="794" y="694"/>
      <point x="805" y="688" type="curve"/>
      <point x="805" y="783" type="line"/>
      <point x="786" y="795"/>
      <point x="695" y="840"/>
      <point x="566" y="840" type="curve" smooth="yes"/>
      <point x="298" y="840"/>
      <point x="108" y="668"/>
      <point x="108" y="413" type="curve" smooth="yes"/>
      <point x="108" y="163"/>
      <point x="284" y="-16"/>
    </contour>
    <contour>
      <point x="448" y="824" type="move" name="top"/>
    </contour>
    <contour>
      <point x="448" y="0" type="move" name="bottom"/>
    </contour>
  </outline>
</glyph>
<glyph name="d" format="1">
  <advance width="1074"/>
  <unicode hex="0064"/>
  <outline>
    <contour>
      <point x="574" y="-16" type="curve" smooth="yes"/>
      <point x="669" y="-16"/>
      <point x="784" y="4"/>
      <point x="909" y="43" type="curve"/>
      <point x="909" y="1241" type="line"/>
      <point x="781" y="1220" type="line"/>
      <point x="781" y="761" type="line"/>
      <point x="781" y="761"/>
      <point x="677" y="840"/>
      <point x="498" y="840" type="curve" smooth="yes"/>
      <point x="263" y="840"/>
      <point x="108" y="650"/>
      <point x="108" y="411" type="curve" smooth="yes"/>
      <point x="108" y="154"/>
      <point x="288" y="-16"/>
    </contour>
    <contour>
      <point x="572" y="81" type="curve" smooth="yes"/>
      <point x="380" y="81"/>
      <point x="235" y="191"/>
      <point x="235" y="402" type="curve" smooth="yes"/>
      <point x="235" y="573.087"/>
      <point x="317" y="742"/>
      <point x="530" y="742" type="curve" smooth="yes"/>
      <point x="670" y="742"/>
      <point x="781" y="666"/>
      <point x="781" y="666" type="curve"/>
      <point x="781" y="108" type="line"/>
      <point x="742" y="99"/>
      <point x="668" y="81"/>
    </contour>
    <contour>
      <point x="537" y="412" type="move" name="center"/>
    </contour>
  </outline>
</glyph>
<glyph name="e" format="1">
  <advance width="952"/>
  <unicode hex="0065"/>
  <outline>
    <contour>
      <point x="559" y="-15" type="curve" smooth="yes"/>
      <point x="688" y="-15"/>
      <point x="764" y="18"/>
      <point x="831" y="57" type="curve"/>
      <point x="831" y="159" type="line"/>
      <point x="770" y="126"/>
      <point x="698" y="81"/>
      <point x="556" y="81" type="curve" smooth="yes"/>
      <point x="384" y="81"/>
      <point x="242" y="170"/>
      <point x="227" y="388" type="curve"/>
      <point x="862" y="388" type="line"/>
      <point x="862" y="409" type="line" smooth="yes"/>
      <point x="862" y="633"/>
      <point x="754" y="840"/>
      <point x="498" y="840" type="curve" smooth="yes"/>
      <point x="282" y="840"/>
      <point x="108" y="669"/>
      <point x="108" y="428" type="curve" smooth="yes"/>
      <point x="108" y="132"/>
      <point x="304" y="-15"/>
    </contour>
    <contour>
      <point x="235" y="474" type="line"/>
      <point x="243" y="542"/>
      <point x="295" y="742"/>
      <point x="513" y="742" type="curve" smooth="yes"/>
      <point x="667" y="742"/>
      <point x="745" y="614"/>
      <point x="754" y="474" type="curve"/>
    </contour>
    <contour>
      <point x="476" y="824" type="move" name="top"/>
    </contour>
    <contour>
      <point x="476" y="0" type="move" name="bottom"/>
    </contour>
    <contour>
      <point x="857" y="10" type="move" name="ogonek"/>
    </contour>
  </outline>
</glyph>
<glyph name="f" format="1">
  <advance width="601"/>
  <unicode hex="0066"/>
  <outline>
    <contour>
      <point x="210" y="0" type="line"/>
      <point x="338" y="0" type="line"/>
      <point x="338" y="723" type="line"/>
      <point x="522" y="723" type="line"/>
      <point x="522" y="824" type="line"/>
      <point x="335" y="824" type="line"/>
      <point x="335" y="891" type="line" smooth="yes"/>
      <point x="335" y="1056"/>
      <point x="407" y="1105"/>
      <point x="497" y="1105" type="curve" smooth="yes"/>
      <point x="537" y="1105"/>
      <point x="573" y="1095"/>
      <point x="620" y="1082" type="curve"/>
      <point x="620" y="1184" type="line"/>
      <point x="566" y="1200"/>
      <point x="519" y="1208"/>
      <point x="475" y="1208" type="curve" smooth="yes"/>
      <point x="297" y="1208"/>
      <point x="207" y="1081"/>
      <point x="207" y="891" type="curve" smooth="yes"/>
      <point x="207" y="824" type="line"/>
      <point x="92" y="824" type="line"/>
      <point x="92" y="723" type="line"/>
      <point x="210" y="723" type="line"/>
    </contour>
  </outline>
</glyph>
<glyph name="h" format="1">
  <advance width="1181"/>
  <unicode hex="0068"/>
  <outline>
    <contour>
      <point x="182" y="0" type="line"/>
      <point x="310" y="0" type="line"/>
      <point x="310" y="595" type="line"/>
      <point x="310" y="595"/>
      <point x="440" y="742"/>
      <point x="629" y="742" type="curve" smooth="yes"/>
      <point x="775" y="742"/>
      <point x="846" y="690"/>
      <point x="846" y="559" type="curve" smooth="yes"/>
      <point x="846" y="0" type="line"/>
      <point x="974" y="0" type="line"/>
      <point x="974" y="580" type="line" smooth="yes"/>
      <point x="974" y="735"/>
      <point x="831" y="840"/>
      <point x="673" y="840" type="curve" smooth="yes"/>
      <point x="428" y="840"/>
      <point x="310" y="694"/>
      <point x="310" y="694" type="curve"/>
      <point x="310" y="1241" type="line"/>
      <point x="182" y="1219" type="line"/>
    </contour>
    <contour>
      <point x="591" y="824" type="move" name="top"/>
    </contour>
    <contour>
      <point x="591" y="412" type="move" name="center"/>
    </contour>
  </outline>
</glyph>
<glyph name="i" format="1">
  <advance width="508"/>
  <unicode hex="0069"/>
  <outline>
    <contour>
      <point x="255" y="1064" type="curve" smooth="yes"/>
      <point x="312" y="1064"/>
      <point x="343" y="1108"/>
      <point x="343" y="1152" type="curve" smooth="yes"/>
      <point x="343" y="1194"/>
      <point x="312" y="1240"/>
      <point x="255" y="1240" type="curve" smooth="yes"/>
      <point x="196" y="1240"/>
      <point x="165" y="1195"/>
      <point x="165" y="1152" type="curve" smooth="yes"/>
      <point x="165" y="1108"/>
      <point x="196" y="1064"/>
    </contour>
    <contour>
      <point x="193" y="0" type="line"/>
      <point x="321" y="0" type="line"/>
      <point x="321" y="824" type="line"/>
      <point x="193" y="824" type="line"/>
    </contour>
  </outline>
</glyph>
<glyph name="j" format="1">
  <advance width="529"/>
  <unicode hex="006A"/>
  <outline>
    <contour>
      <point x="276" y="1064" type="curve" smooth="yes"/>
      <point x="333" y="1064"/>
      <point x="364" y="1108"/>
      <point x="364" y="1152" type="curve" smooth="yes"/>
      <point x="364" y="1194"/>
      <point x="333" y="1240"/>
      <point x="276" y="1240" type="curve" smooth="yes"/>
      <point x="217" y="1240"/>
      <point x="186" y="1195"/>
      <point x="186" y="1152" type="curve" smooth="yes"/>
      <point x="186" y="1108"/>
      <point x="217" y="1064"/>
    </contour>
    <contour>
      <point x="46" y="-326" type="line"/>
      <point x="312" y="-312"/>
      <point x="348" y="-182"/>
      <point x="348" y="-79" type="curve" smooth="yes"/>
      <point x="348" y="824" type="line"/>
      <point x="220" y="824" type="line"/>
      <point x="220" y="-76" type="line" smooth="yes"/>
      <point x="220" y="-178"/>
      <point x="145" y="-213"/>
      <point x="49" y="-221" type="curve" smooth="yes"/>
      <point x="41" y="-222"/>
      <point x="33" y="-222"/>
      <point x="24" y="-223" type="curve"/>
    </contour>
  </outline>
</glyph>
<glyph name="k" format="1">
  <advance width="888"/>
  <unicode hex="006B"/>
  <outline>
    <contour>
      <point x="165" y="-1" type="line"/>
      <point x="293" y="-1" type="line"/>
      <point x="293" y="408" type="line"/>
      <point x="728" y="0" type="line"/>
      <point x="891" y="0" type="line"/>
      <point x="422" y="441" type="line"/>
      <point x="831" y="823" type="line"/>
      <point x="673" y="823" type="line"/>
      <point x="293" y="464" type="line"/>
      <point x="293" y="1241" type="line"/>
      <point x="165" y="1221" type="line"/>
    </contour>
    <contour>
      <point x="444" y="0" type="move" name="bottom"/>
    </contour>
  </outline>
</glyph>
<glyph name="l" format="1">
  <advance width="597"/>
  <unicode hex="006C"/>
  <outline>
    <contour>
      <point x="383" y="-16" type="curve" smooth="yes"/>
      <point x="462" y="-16"/>
      <point x="509" y="1"/>
      <point x="542" y="14" type="curve"/>
      <point x="542" y="105" type="line"/>
      <point x="518" y="98"/>
      <point x="459" y="81"/>
      <point x="402" y="81" type="curve" smooth="yes"/>
      <point x="323" y="81"/>
      <point x="293" y="124"/>
      <point x="293" y="246" type="curve" smooth="yes"/>
      <point x="293" y="1241" type="line"/>
      <point x="165" y="1219" type="line"/>
      <point x="165" y="218" type="line" smooth="yes"/>
      <point x="165" y="60"/>
      <point x="258" y="-16"/>
    </contour>
    <contour>
      <point x="299" y="824" type="move" name="top"/>
    </contour>
    <contour>
      <point x="299" y="0" type="move" name="bottom"/>
    </contour>
    <contour>
      <point x="577" y="824" type="move" name="topright"/>
    </contour>
  </outline>
</glyph>
<glyph name="m" format="1">
  <advance width="1681"/>
  <unicode hex="006D"/>
  <outline>
    <contour>
      <point x="165" y="0" type="line"/>
      <point x="293" y="0" type="line"/>
      <point x="293" y="595" type="line"/>
      <point x="293" y="595"/>
      <point x="397" y="742"/>
      <point x="586" y="742" type="curve" smooth="yes"/>
      <point x="732" y="742"/>
      <point x="787" y="690"/>
      <point x="787" y="559" type="curve" smooth="yes"/>
      <point x="787" y="0" type="line"/>
      <point x="915" y="0" type="line"/>
      <point x="915" y="595" type="line"/>
      <point x="915" y="595"/>
      <point x="1017" y="742"/>
      <point x="1206" y="742" type="curve" smooth="yes"/>
      <point x="1352" y="742"/>
      <point x="1409" y="690"/>
      <point x="1409" y="559" type="curve" smooth="yes"/>
      <point x="1409" y="0" type="line"/>
      <point x="1537" y="0" type="line"/>
      <point x="1537" y="580" type="line" smooth="yes"/>
      <point x="1537" y="735"/>
      <point x="1424" y="840"/>
      <point x="1241" y="840" type="curve" smooth="yes"/>
      <point x="996" y="840"/>
      <point x="893" y="685"/>
      <point x="893" y="685" type="curve"/>
      <point x="851" y="780"/>
      <point x="749" y="840"/>
      <point x="630" y="840" type="curve" smooth="yes"/>
      <point x="385" y="840"/>
      <point x="290" y="694"/>
      <point x="290" y="694" type="curve"/>
      <point x="290" y="824" type="line"/>
      <point x="165" y="824" type="line"/>
    </contour>
  </outline>
</glyph>
<glyph name="n" format="1">
  <advance width="1101"/>
  <unicode hex="006E"/>
  <outline>
    <contour>
      <point x="165" y="0" type="line"/>
      <point x="293" y="0" type="line"/>
      <point x="293" y="595" type="line"/>
      <point x="293" y="595"/>
      <point x="419" y="742"/>
      <point x="608" y="742" type="curve" smooth="yes"/>
      <point x="754" y="742"/>
      <point x="829" y="690"/>
      <point x="829" y="559" type="curve" smooth="yes"/>
      <point x="829" y="0" type="line"/>
      <point x="957" y="0" type="line"/>
      <point x="957" y="580" type="line" smooth="yes"/>
      <point x="957" y="735"/>
      <point x="810" y="840"/>
      <point x="652" y="840" type="curve" smooth="yes"/>
      <point x="407" y="840"/>
      <point x="290" y="694"/>
      <point x="290" y="694" type="curve"/>
      <point x="290" y="824" type="line"/>
      <point x="165" y="824" type="line"/>
    </contour>
    <contour>
      <point x="551" y="824" type="move" name="top"/>
    </contour>
    <contour>
      <point x="551" y="0" type="move" name="bottom"/>
    </contour>
  </outline>
</glyph>
<glyph name="o" format="1">
  <advance width="1106"/>
  <unicode hex="006F"/>
  <outline>
    <contour>
      <point x="552" y="-16" type="curve" smooth="yes"/>
      <point x="320" y="-16"/>
      <point x="108" y="138"/>
      <point x="108" y="408" type="curve" smooth="yes"/>
      <point x="108" y="682"/>
      <point x="321" y="840"/>
      <point x="554" y="840" type="curve" smooth="yes"/>
      <point x="771" y="840"/>
      <point x="998" y="683"/>
      <point x="998" y="408" type="curve" smooth="yes"/>
      <point x="998" y="139"/>
      <point x="785" y="-16"/>
    </contour>
    <contour>
      <point x="553" y="81" type="curve" smooth="yes"/>
      <point x="769" y="81"/>
      <point x="879" y="244"/>
      <point x="879" y="409" type="curve" smooth="yes"/>
      <point x="879" y="575"/>
      <point x="765" y="742"/>
      <point x="553" y="742" type="curve" smooth="yes"/>
      <point x="341" y="742"/>
      <point x="227" y="576"/>
      <point x="227" y="410" type="curve" smooth="yes"/>
      <point x="227" y="230"/>
      <point x="337" y="81"/>
    </contour>
    <contour>
      <point x="553" y="824" type="move" name="top"/>
    </contour>
  </outline>
</glyph>
<glyph name="p" format="1">
  <advance width="1074"/>
  <unicode hex="0070"/>
  <outline>
    <contour>
      <point x="165" y="-417" type="line"/>
      <point x="293" y="-396" type="line"/>
      <point x="293" y="38" type="line"/>
      <point x="293" y="38"/>
      <point x="388" y="-16"/>
      <point x="567" y="-16" type="curve" smooth="yes"/>
      <point x="820" y="-16"/>
      <point x="966" y="171"/>
      <point x="966" y="410" type="curve" smooth="yes"/>
      <point x="966" y="654"/>
      <point x="805" y="839"/>
      <point x="572" y="839" type="curve" smooth="yes"/>
      <point x="459" y="839"/>
      <point x="363" y="806"/>
      <point x="293" y="745" type="curve"/>
      <point x="293" y="824" type="line"/>
      <point x="165" y="824" type="line"/>
    </contour>
    <contour>
      <point x="544" y="81" type="curve" smooth="yes"/>
      <point x="404" y="81"/>
      <point x="293" y="128"/>
      <point x="293" y="128" type="curve"/>
      <point x="293" y="649" type="line"/>
      <point x="305" y="661"/>
      <point x="411" y="743"/>
      <point x="539" y="743" type="curve" smooth="yes"/>
      <point x="731" y="743"/>
      <point x="839" y="623"/>
      <point x="839" y="412" type="curve" smooth="yes"/>
      <point x="839" y="241"/>
      <point x="757" y="81"/>
    </contour>
  </outline>
</glyph>
<glyph name="q" format="1">
  <advance width="1074"/>
  <unicode hex="0071"/>
  <outline>
    <contour>
      <point x="781" y="-413" type="line"/>
      <point x="909" y="-413" type="line"/>
      <point x="909" y="824" type="line"/>
      <point x="781" y="824" type="line"/>
      <point x="781" y="761" type="line"/>
      <point x="694" y="824"/>
      <point x="593" y="840"/>
      <point x="514" y="840" type="curve" smooth="yes"/>
      <point x="266" y="840"/>
      <point x="108" y="662"/>
      <point x="108" y="423" type="curve" smooth="yes"/>
      <point x="108" y="156"/>
      <point x="281" y="-16"/>
      <point x="585" y="-16" type="curve" smooth="yes"/>
      <point x="703" y="-16"/>
      <point x="781" y="11"/>
      <point x="781" y="11" type="curve"/>
    </contour>
    <contour>
      <point x="587" y="82" type="curve" smooth="yes"/>
      <point x="356" y="82"/>
      <point x="235" y="197"/>
      <point x="235" y="427" type="curve" smooth="yes"/>
      <point x="235" y="631"/>
      <point x="378" y="743"/>
      <point x="527" y="743" type="curve" smooth="yes"/>
      <point x="648" y="743"/>
      <point x="746" y="692"/>
      <point x="781" y="665" type="curve"/>
      <point x="781" y="109" type="line"/>
      <point x="781" y="109"/>
      <point x="700" y="82"/>
    </contour>
  </outline>
</glyph>
<glyph name="r" format="1">
  <advance width="713"/>
  <unicode hex="0072"/>
  <outline>
    <contour>
      <point x="165" y="0" type="line"/>
      <point x="293" y="0" type="line"/>
      <point x="293" y="413" type="line" smooth="yes"/>
      <point x="293" y="540"/>
      <point x="414" y="703"/>
      <point x="543" y="703" type="curve" smooth="yes"/>
      <point x="595" y="703"/>
      <point x="641" y="681"/>
      <point x="681" y="648" type="curve"/>
      <point x="717" y="744" type="line"/>
      <point x="658" y="804"/>
      <point x="609" y="829"/>
      <point x="561" y="829" type="curve" smooth="yes"/>
      <point x="406" y="829"/>
      <point x="293" y="573"/>
      <point x="293" y="573" type="curve"/>
      <point x="293" y="824" type="line"/>
      <point x="165" y="824" type="line"/>
    </contour>
    <contour>
      <point x="357" y="824" type="move" name="top"/>
    </contour>
    <contour>
      <point x="357" y="0" type="move" name="bottom"/>
    </contour>
  </outline>
</glyph>
<glyph name="s" format="1">
  <advance width="812"/>
  <unicode hex="0073"/>
  <outline>
    <contour>
      <point x="466" y="-16" type="curve" smooth="yes"/>
      <point x="649" y="-16"/>
      <point x="721" y="94"/>
      <point x="721" y="198" type="curve" smooth="yes"/>
      <point x="721" y="263"/>
      <point x="692" y="337"/>
      <point x="576" y="398" type="curve" smooth="yes"/>
      <point x="355" y="514" type="line" smooth="yes"/>
      <point x="288" y="549"/>
      <point x="262" y="578"/>
      <point x="262" y="636" type="curve" smooth="yes"/>
      <point x="262" y="696"/>
      <point x="322" y="743"/>
      <point x="424" y="743" type="curve" smooth="yes"/>
      <point x="524" y="743"/>
      <point x="600" y="712"/>
      <point x="658" y="690" type="curve"/>
      <point x="684" y="779" type="line"/>
      <point x="634" y="802"/>
      <point x="539" y="840"/>
      <point x="418" y="840" type="curve" smooth="yes"/>
      <point x="231" y="840"/>
      <point x="144" y="735"/>
      <point x="144" y="631" type="curve" smooth="yes"/>
      <point x="144" y="563"/>
      <point x="171" y="491"/>
      <point x="291" y="428" type="curve" smooth="yes"/>
      <point x="509" y="315" type="line" smooth="yes"/>
      <point x="580" y="278"/>
      <point x="604" y="244"/>
      <point x="604" y="194" type="curve" smooth="yes"/>
      <point x="604" y="127"/>
      <point x="550" y="81"/>
      <point x="464" y="81" type="curve" smooth="yes"/>
      <point x="374" y="81"/>
      <point x="229" y="115"/>
      <point x="134" y="174" type="curve"/>
      <point x="120" y="75" type="line"/>
      <point x="168" y="44"/>
      <point x="295" y="-16"/>
    </contour>
    <contour>
      <point x="406" y="824" type="move" name="top"/>
    </contour>
    <contour>
      <point x="406" y="0" type="move" name="bottom"/>
    </contour>
  </outline>
</glyph>
<glyph name="t" format="1">
  <advance width="708"/>
  <unicode hex="0074"/>
  <outline>
    <contour>
      <point x="444" y="-16" type="curve" smooth="yes"/>
      <point x="557" y="-16"/>
      <point x="620" y="19"/>
      <point x="653" y="39" type="curve"/>
      <point x="653" y="132" type="line"/>
      <point x="622" y="118"/>
      <point x="554" y="81"/>
      <point x="461" y="81" type="curve" smooth="yes"/>
      <point x="389" y="81"/>
      <point x="328" y="102"/>
      <point x="328" y="208" type="curve" smooth="yes"/>
      <point x="328" y="726" type="line"/>
      <point x="608" y="726" type="line"/>
      <point x="608" y="824" type="line"/>
      <point x="328" y="824" type="line"/>
      <point x="328" y="997" type="line"/>
      <point x="99" y="747" type="line" smooth="yes"/>
      <point x="97" y="745"/>
      <point x="95" y="741"/>
      <point x="95" y="738" type="curve" smooth="yes"/>
      <point x="95" y="732"/>
      <point x="100" y="726"/>
      <point x="111" y="726" type="curve" smooth="yes"/>
      <point x="200" y="726" type="line"/>
      <point x="200" y="191" type="line" smooth="yes"/>
      <point x="200" y="57"/>
      <point x="311" y="-16"/>
    </contour>
    <contour>
      <point x="354" y="412" type="move" name="center"/>
    </contour>
    <contour>
      <point x="354" y="0" type="move" name="bottom"/>
    </contour>
  </outline>
</glyph>
<glyph name="u" format="1">
  <advance width="1087"/>
  <unicode hex="0075"/>
  <outline>
    <contour>
      <point x="138" y="92"/>
      <point x="268" y="-16"/>
      <point x="443" y="-16" type="curve" smooth="yes"/>
      <point x="684" y="-16"/>
      <point x="798" y="130"/>
      <point x="798" y="130" type="curve"/>
      <point x="798" y="0" type="line"/>
      <point x="923" y="0" type="line"/>
      <point x="923" y="824" type="line"/>
      <point x="795" y="824" type="line"/>
      <point x="795" y="229" type="line"/>
      <point x="795" y="229"/>
      <point x="670" y="82"/>
      <point x="481" y="82" type="curve" smooth="yes"/>
      <point x="335" y="82"/>
      <point x="266" y="134"/>
      <point x="266" y="265" type="curve" smooth="yes"/>
      <point x="266" y="824" type="line"/>
      <point x="138" y="824" type="line"/>
      <point x="138" y="244" type="line" smooth="yes"/>
    </contour>
    <contour>
      <point x="542" y="824" type="move" name="top"/>
    </contour>
    <contour>
      <point x="984" y="10" type="move" name="ogonek"/>
    </contour>
  </outline>
</glyph>
<glyph name="v" format="1">
  <advance width="912"/>
  <unicode hex="0076"/>
  <outline>
    <contour>
      <point x="462" y="-32" type="line"/>
      <point x="864" y="824" type="line"/>
      <point x="737" y="824" type="line"/>
      <point x="463" y="207" type="line"/>
      <point x="178" y="824" type="line"/>
      <point x="48" y="824" type="line"/>
    </contour>
  </outline>
</glyph>
<glyph name="w" format="1">
  <advance width="1267"/>
  <unicode hex="0077"/>
  <outline>
    <contour>
      <point x="370" y="-19" type="line"/>
      <point x="639" y="601" type="line"/>
      <point x="903" y="-19" type="line"/>
      <point x="1224" y="824" type="line"/>
      <point x="1105" y="824" type="line"/>
      <point x="899" y="249" type="line"/>
      <point x="636" y="847" type="line"/>
      <point x="380" y="252" type="line"/>
      <point x="161" y="824" type="line"/>
      <point x="43" y="824" type="line"/>
    </contour>
    <contour>
      <point x="634" y="824" type="move" name="top"/>
    </contour>
  </outline>
</glyph>
<glyph name="x" format="1">
  <advance width="967"/>
  <unicode hex="0078"/>
  <outline>
    <contour>
      <point x="53" y="0" type="line"/>
      <point x="198" y="0" type="line"/>
      <point x="484" y="352" type="line"/>
      <point x="783" y="0" type="line"/>
      <point x="914" y="0" type="line"/>
      <point x="558" y="414" type="line"/>
      <point x="906" y="824" type="line"/>
      <point x="756" y="824" type="line"/>
      <point x="480" y="488" type="line"/>
      <point x="188" y="824" type="line"/>
      <point x="54" y="824" type="line"/>
      <point x="408" y="425" type="line"/>
    </contour>
  </outline>
</glyph>
<glyph name="y" format="1">
  <advance width="923"/>
  <unicode hex="0079"/>
  <outline>
    <contour>
      <point x="190" y="-244" type="line"/>
      <point x="326" y="-244" type="line"/>
      <point x="892" y="824" type="line"/>
      <point x="760" y="824" type="line"/>
      <point x="487" y="300" type="line"/>
      <point x="165" y="824" type="line"/>
      <point x="29" y="824" type="line"/>
      <point x="421" y="205" type="line"/>
    </contour>
    <contour>
      <point x="462" y="824" type="move" name="top"/>
    </contour>
  </outline>
</glyph>
<glyph name="z" format="1">
  <advance width="860"/>
  <unicode hex="007A"/>
  <outline>
    <contour>
      <point x="97" y="0" type="line"/>
      <point x="756" y="0" type="line"/>
      <point x="756" y="98" type="line"/>
      <point x="298" y="98" type="line"/>
      <point x="784" y="824" type="line"/>
      <point x="140.047" y="824" type="line"/>
      <point x="140" y="726" type="line"/>
      <point x="592" y="726" type="line"/>
    </contour>
    <contour>
      <point x="430" y="824" type="move" name="top"/>
    </contour>
  </outline>
</glyph>
<glyph name="bar" format="1">
  <advance width="435"/>
  <unicode hex="007C"/>
  <outline>
    <contour>
      <point x="153" y="-145" type="line"/>
      <point x="153" y="-145"/>
      <point x="281" y="-145"/>
      <point x="281" y="-144" type="curve" smooth="yes"/>
      <point x="281" y="1241" type="line"/>
      <point x="153" y="1241" type="line"/>
    </contour>
  </outline>
</glyph>
<glyph name="asciitilde" format="1">
  <advance width="984"/>
  <unicode hex="007E"/>
  <outline>
    <contour>
      <point x="679" y="618" type="curve" smooth="yes"/>
      <point x="765" y="618"/>
      <point x="848" y="665"/>
      <point x="848" y="826" type="curve"/>
      <point x="750" y="826" type="line"/>
      <point x="750" y="766"/>
      <point x="714" y="734"/>
      <point x="674" y="734" type="curve" smooth="yes"/>
      <point x="590" y="734"/>
      <point x="432" y="840"/>
      <point x="307" y="840" type="curve" smooth="yes"/>
      <point x="231" y="840"/>
      <point x="137" y="790"/>
      <point x="137" y="632" type="curve"/>
      <point x="235" y="632" type="line"/>
      <point x="235" y="703"/>
      <point x="274" y="728"/>
      <point x="319" y="728" type="curve" smooth="yes"/>
      <point x="383" y="728"/>
      <point x="579" y="618"/>
    </contour>
  </outline>
</glyph>
<glyph name="cent" format="1">
  <advance width="953"/>
  <unicode hex="00A2"/>
  <outline>
    <contour>
      <point x="347" y="-202" type="line"/>
      <point x="415" y="-202" type="line"/>
      <point x="665" y="1009" type="line"/>
      <point x="595" y="1009" type="line"/>
    </contour>
    <component base="c"/>
  </outline>
</glyph>
<glyph name="sterling" format="1">
  <advance width="978"/>
  <unicode hex="00A3"/>
  <outline>
    <contour>
      <point x="602" y="-22" type="curve" smooth="yes"/>
      <point x="757" y="-22"/>
      <point x="908" y="64"/>
      <point x="908" y="269" type="curve"/>
      <point x="785" y="269" type="line"/>
      <point x="785" y="144"/>
      <point x="700" y="85"/>
      <point x="599" y="85" type="curve" smooth="yes"/>
      <point x="487" y="85"/>
      <point x="380" y="146"/>
      <point x="326" y="227" type="curve"/>
      <point x="349" y="296"/>
      <point x="357" y="361"/>
      <point x="357" y="423" type="curve" smooth="yes"/>
      <point x="357" y="470"/>
      <point x="349" y="519"/>
      <point x="338" y="568" type="curve"/>
      <point x="586" y="568" type="line"/>
      <point x="586" y="666" type="line"/>
      <point x="311" y="666" type="line"/>
      <point x="282" y="764"/>
      <point x="249" y="856"/>
      <point x="249" y="924" type="curve" smooth="yes"/>
      <point x="249" y="1089"/>
      <point x="384" y="1166"/>
      <point x="501" y="1166" type="curve" smooth="yes"/>
      <point x="627" y="1166"/>
      <point x="709" y="1084"/>
      <point x="733" y="1065" type="curve"/>
      <point x="794" y="1148" type="line"/>
      <point x="753" y="1193"/>
      <point x="642" y="1274"/>
      <point x="498" y="1274" type="curve" smooth="yes"/>
      <point x="323" y="1274"/>
      <point x="130" y="1164"/>
      <point x="130" y="920" type="curve" smooth="yes"/>
      <point x="130" y="852"/>
      <point x="163" y="762"/>
      <point x="192" y="666" type="curve"/>
      <point x="82" y="666" type="line"/>
      <point x="82" y="568" type="line"/>
      <point x="219" y="568" type="line"/>
      <point x="230" y="520"/>
      <point x="238" y="472"/>
      <point x="238" y="425" type="curve" smooth="yes"/>
      <point x="238" y="307"/>
      <point x="192" y="169"/>
      <point x="65" y="0" type="curve"/>
      <point x="207" y="0" type="line"/>
      <point x="237" y="41"/>
      <point x="261" y="80"/>
      <point x="281" y="119" type="curve"/>
      <point x="363" y="32"/>
      <point x="482" y="-22"/>
    </contour>
  </outline>
</glyph>
<glyph name="yen" format="1">
  <advance width="1214"/>
  <unicode hex="00A5"/>
  <outline>
    <contour>
      <point x="549" y="0" type="line"/>
      <point x="677" y="0" type="line"/>
      <point x="677" y="437" type="line"/>
      <point x="929" y="437" type="line"/>
      <point x="929" y="530" type="line"/>
      <point x="707" y="530" type="line"/>
      <point x="770" y="647" type="line"/>
      <point x="969" y="647" type="line"/>
      <point x="969" y="740" type="line"/>
      <point x="820" y="740" type="line"/>
      <point x="1091" y="1241" type="line"/>
      <point x="955" y="1241" type="line"/>
      <point x="615" y="592" type="line"/>
      <point x="251" y="1241" type="line"/>
      <point x="122" y="1241" type="line"/>
      <point x="403" y="740" type="line"/>
      <point x="249" y="740" type="line"/>
      <point x="249" y="647" type="line"/>
      <point x="455" y="647" type="line"/>
      <point x="520" y="530" type="line"/>
      <point x="289" y="530" type="line"/>
      <point x="289" y="437" type="line"/>
      <point x="549" y="437" type="line"/>
    </contour>
  </outline>
</glyph>
<glyph name="brokenbar" format="1">
  <advance width="435"/>
  <unicode hex="00A6"/>
  <outline>
    <contour>
      <point x="153" y="-144" type="line"/>
      <point x="153" y="-144"/>
      <point x="281" y="-145"/>
      <point x="281" y="-144" type="curve" smooth="yes"/>
      <point x="281" y="412" type="line"/>
      <point x="153" y="412" type="line"/>
    </contour>
    <contour>
      <point x="153" y="675" type="line"/>
      <point x="153" y="675"/>
      <point x="281" y="674"/>
      <point x="281" y="675" type="curve" smooth="yes"/>
      <point x="281" y="1241" type="line"/>
      <point x="153" y="1241" type="line"/>
    </contour>
  </outline>
</glyph>
<glyph name="section" format="1">
  <advance width="858"/>
  <unicode hex="00A7"/>
  <outline>
    <contour>
      <point x="472" y="37.4004" type="curve" smooth="yes"/>
      <point x="655" y="37.4004"/>
      <point x="727" y="147.4"/>
      <point x="727" y="251.4" type="curve" smooth="yes"/>
      <point x="727" y="314.783"/>
      <point x="699.425" y="386.725"/>
      <point x="590.496" y="446.824" type="curve"/>
      <point x="686.901" y="479.518"/>
      <point x="727" y="553.788"/>
      <point x="727" y="631.4" type="curve" smooth="yes"/>
      <point x="727" y="696.4"/>
      <point x="698" y="770.4"/>
      <point x="582" y="831.4" type="curve" smooth="yes"/>
      <point x="361" y="947.4" type="line" smooth="yes"/>
      <point x="294" y="982.4"/>
      <point x="268" y="1011.4"/>
      <point x="268" y="1069.4" type="curve" smooth="yes"/>
      <point x="268" y="1129.4"/>
      <point x="328" y="1176.4"/>
      <point x="430" y="1176.4" type="curve" smooth="yes"/>
      <point x="530" y="1176.4"/>
      <point x="606" y="1143.4"/>
      <point x="664" y="1121.4" type="curve"/>
      <point x="690" y="1212.4" type="line"/>
      <point x="640" y="1235.4"/>
      <point x="545" y="1273.4"/>
      <point x="424" y="1273.4" type="curve" smooth="yes"/>
      <point x="237" y="1273.4"/>
      <point x="150" y="1168.4"/>
      <point x="150" y="1064.4" type="curve" smooth="yes"/>
      <point x="150" y="994.032"/>
      <point x="181.581" y="921.228"/>
      <point x="302.499" y="858.55" type="curve"/>
      <point x="199.001" y="829.801"/>
      <point x="150" y="762.451"/>
      <point x="150" y="684.4" type="curve" smooth="yes"/>
      <point x="150" y="616.4"/>
      <point x="177" y="544.4"/>
      <point x="297" y="481.4" type="curve" smooth="yes"/>
      <point x="515" y="368.4" type="line" smooth="yes"/>
      <point x="586" y="331.4"/>
      <point x="610" y="297.4"/>
      <point x="610" y="247.4" type="curve" smooth="yes"/>
      <point x="610" y="180.4"/>
      <point x="556" y="134.4"/>
      <point x="470" y="134.4" type="curve" smooth="yes"/>
      <point x="380" y="134.4"/>
      <point x="235" y="168.4"/>
      <point x="140" y="227.4" type="curve"/>
      <point x="126" y="128.4" type="line"/>
      <point x="174" y="97.4004"/>
      <point x="301" y="37.4004"/>
    </contour>
    <contour>
      <point x="476.986" y="506.521" type="curve"/>
      <point x="361" y="567.4" type="line" smooth="yes"/>
      <point x="294" y="602.4"/>
      <point x="268" y="631.4"/>
      <point x="268" y="689.4" type="curve" smooth="yes"/>
      <point x="268" y="747.927"/>
      <point x="325.089" y="794.084"/>
      <point x="422.562" y="796.315" type="curve"/>
      <point x="515" y="748.4" type="line" smooth="yes"/>
      <point x="586" y="711.4"/>
      <point x="610" y="677.4"/>
      <point x="610" y="627.4" type="curve" smooth="yes"/>
      <point x="610" y="562.233"/>
      <point x="558.914" y="509.365"/>
    </contour>
  </outline>
</glyph>
<glyph name="dieresis" format="1">
  <advance width="804"/>
  <unicode hex="00A8"/>
  <outline>
    <contour>
      <point x="568" y="144" type="curve" smooth="yes"/>
      <point x="625" y="144"/>
      <point x="656" y="188"/>
      <point x="656" y="232" type="curve" smooth="yes"/>
      <point x="656" y="274"/>
      <point x="625" y="320"/>
      <point x="568" y="320" type="curve" smooth="yes"/>
      <point x="509" y="320"/>
      <point x="478" y="275"/>
      <point x="478" y="232" type="curve" smooth="yes"/>
      <point x="478" y="188"/>
      <point x="509" y="144"/>
    </contour>
    <contour>
      <point x="238" y="144" type="curve" smooth="yes"/>
      <point x="295" y="144"/>
      <point x="326" y="188"/>
      <point x="326" y="232" type="curve" smooth="yes"/>
      <point x="326" y="274"/>
      <point x="295" y="320"/>
      <point x="238" y="320" type="curve" smooth="yes"/>
      <point x="179" y="320"/>
      <point x="148" y="275"/>
      <point x="148" y="232" type="curve" smooth="yes"/>
      <point x="148" y="188"/>
      <point x="179" y="144"/>
    </contour>
    <contour>
      <point x="402" y="824" type="move" name="_top"/>
    </contour>
  </outline>
</glyph>
<glyph name="copyright" format="1">
  <advance width="1525"/>
  <unicode hex="00A9"/>
  <outline>
    <contour>
      <point x="765" y="-5" type="curve" smooth="yes"/>
      <point x="449" y="-5"/>
      <point x="147" y="187.2"/>
      <point x="147" y="619" type="curve" smooth="yes"/>
      <point x="147" y="1044.2"/>
      <point x="434" y="1245"/>
      <point x="765" y="1245" type="curve" smooth="yes"/>
      <point x="1094" y="1245"/>
      <point x="1386" y="1052"/>
      <point x="1386" y="618" type="curve" smooth="yes"/>
      <point x="1386" y="188"/>
      <point x="1063" y="-5"/>
    </contour>
    <contour>
      <point x="766" y="-99" type="curve" smooth="yes"/>
      <point x="1138" y="-99"/>
      <point x="1500" y="138"/>
      <point x="1500" y="623" type="curve" smooth="yes"/>
      <point x="1500" y="1101"/>
      <point x="1138" y="1339"/>
      <point x="765" y="1339" type="curve" smooth="yes"/>
      <point x="394" y="1339"/>
      <point x="33" y="1102"/>
      <point x="33" y="619" type="curve" smooth="yes"/>
      <point x="33" y="138"/>
      <point x="394" y="-99"/>
    </contour>
    <contour>
      <point x="774.826" y="134.539" type="curve" smooth="yes"/>
      <point x="878.691" y="134.539"/>
      <point x="989.848" y="162.503"/>
      <point x="1099" y="223.848" type="curve"/>
      <point x="1099" y="326.473" type="line"/>
      <point x="997.993" y="259.145"/>
      <point x="885.113" y="225.802"/>
      <point x="779.55" y="225.802" type="curve" smooth="yes"/>
      <point x="568.951" y="225.802"/>
      <point x="390.47" y="358.509"/>
      <point x="390.47" y="618.825" type="curve" smooth="yes"/>
      <point x="390.47" y="878.498"/>
      <point x="576.13" y="1021.65"/>
      <point x="792.534" y="1021.65" type="curve" smooth="yes"/>
      <point x="894.26" y="1021.65"/>
      <point x="999.778" y="989.681"/>
      <point x="1099" y="925.601" type="curve"/>
      <point x="1099" y="1023.19" type="line"/>
      <point x="997.905" y="1083.64"/>
      <point x="891.695" y="1113.73"/>
      <point x="790.445" y="1113.73" type="curve" smooth="yes"/>
      <point x="494.487" y="1113.73"/>
      <point x="274.709" y="919.322"/>
      <point x="274.709" y="622.584" type="curve" smooth="yes"/>
      <point x="274.709" y="330.776"/>
      <point x="499.684" y="134.539"/>
    </contour>
  </outline>
</glyph>
<glyph name="guillemotleft" format="1">
  <advance width="780"/>
  <unicode hex="00AB"/>
  <outline>
    <contour>
      <point x="684" y="197" type="curve" smooth="yes"/>
      <point x="700" y="197"/>
      <point x="711" y="208"/>
      <point x="711" y="221" type="curve" smooth="yes"/>
      <point x="711" y="229"/>
      <point x="704" y="237"/>
      <point x="695" y="248" type="curve"/>
      <point x="524" y="497" type="line"/>
      <point x="695" y="747" type="line"/>
      <point x="704" y="758"/>
      <point x="711" y="766"/>
      <point x="711" y="774" type="curve" smooth="yes"/>
      <point x="711" y="787"/>
      <point x="700" y="798"/>
      <point x="684" y="798" type="curve" smooth="yes"/>
      <point x="679" y="798"/>
      <point x="672" y="797"/>
      <point x="664" y="793" type="curve"/>
      <point x="410" y="577" type="line"/>
      <point x="377" y="555"/>
      <point x="360" y="526"/>
      <point x="360" y="497" type="curve" smooth="yes"/>
      <point x="360" y="469"/>
      <point x="376" y="440"/>
      <point x="410" y="418" type="curve"/>
      <point x="664" y="202" type="line"/>
      <point x="672" y="198"/>
      <point x="679" y="197"/>
    </contour>
    <contour>
      <point x="393" y="197" type="curve" smooth="yes"/>
      <point x="409" y="197"/>
      <point x="420" y="208"/>
      <point x="420" y="221" type="curve" smooth="yes"/>
      <point x="420" y="229"/>
      <point x="413" y="237"/>
      <point x="404" y="248" type="curve"/>
      <point x="233" y="497" type="line"/>
      <point x="404" y="747" type="line"/>
      <point x="413" y="758"/>
      <point x="420" y="766"/>
      <point x="420" y="774" type="curve" smooth="yes"/>
      <point x="420" y="787"/>
      <point x="409" y="798"/>
      <point x="393" y="798" type="curve" smooth="yes"/>
      <point x="388" y="798"/>
      <point x="381" y="797"/>
      <point x="373" y="793" type="curve"/>
      <point x="119" y="577" type="line"/>
      <point x="86" y="555"/>
      <point x="69" y="526"/>
      <point x="69" y="497" type="curve" smooth="yes"/>
      <point x="69" y="469"/>
      <point x="85" y="440"/>
      <point x="119" y="418" type="curve"/>
      <point x="373" y="202" type="line"/>
      <point x="381" y="198"/>
      <point x="388" y="197"/>
    </contour>
  </outline>
</glyph>
<glyph name="logicalnot" format="1">
  <advance width="894"/>
  <unicode hex="00AC"/>
  <outline>
    <contour>
      <point x="649" y="461" type="line"/>
      <point x="742" y="461" type="line"/>
      <point x="742" y="824" type="line"/>
      <point x="149" y="824" type="line"/>
      <point x="149" y="731" type="line"/>
      <point x="649" y="731" type="line"/>
    </contour>
  </outline>
</glyph>
<glyph name="uni00AD" format="1">
  <advance width="899"/>
  <unicode hex="00AD"/>
  <outline>
    <contour>
      <point x="153" y="731" type="line"/>
      <point x="745.5" y="731" type="line"/>
      <point x="746" y="824" type="line"/>
      <point x="153" y="824" type="line"/>
    </contour>
  </outline>
</glyph>
<glyph name="registered" format="1">
  <advance width="1525"/>
  <unicode hex="00AE"/>
  <outline>
    <contour>
      <point x="467" y="158" type="line"/>
      <point x="568" y="158" type="line"/>
      <point x="568" y="579" type="line"/>
      <point x="601" y="579" type="line"/>
      <point x="978" y="158" type="line"/>
      <point x="1111" y="158" type="line"/>
      <point x="721" y="579" type="line"/>
      <point x="917" y="586"/>
      <point x="1060" y="646"/>
      <point x="1060" y="834" type="curve" smooth="yes"/>
      <point x="1060" y="1003"/>
      <point x="918" y="1078"/>
      <point x="686" y="1078" type="curve" smooth="yes"/>
      <point x="467" y="1078" type="line"/>
    </contour>
    <contour>
      <point x="568" y="664" type="line"/>
      <point x="568" y="994" type="line"/>
      <point x="690" y="994" type="line" smooth="yes"/>
      <point x="884" y="994"/>
      <point x="955" y="945"/>
      <point x="955" y="830" type="curve" smooth="yes"/>
      <point x="955" y="684"/>
      <point x="830" y="664"/>
      <point x="656" y="664" type="curve" smooth="yes"/>
    </contour>
    <contour>
      <point x="765.0" y="-5.0" type="curve" smooth="yes"/>
      <point x="449.0" y="-5.0"/>
      <point x="147.0" y="187.2"/>
      <point x="147.0" y="619.0" type="curve" smooth="yes"/>
      <point x="147.0" y="1044.2"/>
      <point x="434.0" y="1245.0"/>
      <point x="765.0" y="1245.0" type="curve" smooth="yes"/>
      <point x="1094.0" y="1245.0"/>
      <point x="1386.0" y="1052.0"/>
      <point x="1386.0" y="618.0" type="curve" smooth="yes"/>
      <point x="1386.0" y="188.0"/>
      <point x="1063.0" y="-5.0"/>
    </contour>
    <contour>
      <point x="766.0" y="-99.0" type="curve" smooth="yes"/>
      <point x="1138.0" y="-99.0"/>
      <point x="1500.0" y="138.0"/>
      <point x="1500.0" y="623.0" type="curve" smooth="yes"/>
      <point x="1500.0" y="1101.0"/>
      <point x="1138.0" y="1339.0"/>
      <point x="765.0" y="1339.0" type="curve" smooth="yes"/>
      <point x="394.0" y="1339.0"/>
      <point x="33.0" y="1102.0"/>
      <point x="33.0" y="619.0" type="curve" smooth="yes"/>
      <point x="33.0" y="138.0"/>
      <point x="394.0" y="-99.0"/>
    </contour>
  </outline>
</glyph>
<glyph name="macron" format="1">
  <advance width="917"/>
  <unicode hex="00AF"/>
  <outline>
    <component base="minus" xOffset="-117"/>
    <contour>
      <point x="-17" y="824" type="move" name="_top"/>
    </contour>
  </outline>
</glyph>
<glyph name="plusminus" format="1">
  <advance width="913"/>
  <unicode hex="00B1"/>
  <outline>
    <contour>
      <point x="409" y="389" type="line"/>
      <point x="502" y="389" type="line"/>
      <point x="502" y="647" type="line"/>
      <point x="761" y="647" type="line"/>
      <point x="761" y="740" type="line"/>
      <point x="502" y="740" type="line"/>
      <point x="502" y="999" type="line"/>
      <point x="409" y="999" type="line"/>
      <point x="409" y="740" type="line"/>
      <point x="151" y="740" type="line"/>
      <point x="151" y="647" type="line"/>
      <point x="409" y="647" type="line"/>
    </contour>
    <contour>
      <point x="151" y="160" type="line"/>
      <point x="761" y="160" type="line"/>
      <point x="761" y="253" type="line"/>
      <point x="151" y="253" type="line"/>
    </contour>
  </outline>
</glyph>
<glyph name="acute" format="1">
  <advance width="443"/>
  <unicode hex="00B4"/>
  <outline>
    <contour>
      <point x="91" y="116" type="curve" smooth="yes"/>
      <point x="98" y="116"/>
      <point x="105" y="120"/>
      <point x="112" y="128" type="curve" smooth="yes"/>
      <point x="352" y="411" type="line" smooth="yes"/>
      <point x="364" y="425"/>
      <point x="369" y="439"/>
      <point x="369" y="452" type="curve" smooth="yes"/>
      <point x="369" y="484"/>
      <point x="337" y="511"/>
      <point x="304" y="511" type="curve" smooth="yes"/>
      <point x="282" y="511"/>
      <point x="259" y="499"/>
      <point x="244" y="471" type="curve" smooth="yes"/>
      <point x="77" y="151" type="line" smooth="yes"/>
      <point x="74" y="145"/>
      <point x="73" y="140"/>
      <point x="73" y="136" type="curve" smooth="yes"/>
      <point x="73" y="124"/>
      <point x="81" y="116"/>
    </contour>
    <contour>
      <point x="221" y="824" type="move" name="_top"/>
    </contour>
  </outline>
</glyph>
<glyph name="paragraph" format="1">
  <advance width="1021"/>
  <unicode hex="00B6"/>
  <outline>
    <contour>
      <point x="525" y="0" type="line"/>
      <point x="653" y="0" type="line"/>
      <point x="653" y="1148" type="line"/>
      <point x="744" y="1148" type="line"/>
      <point x="744" y="0" type="line"/>
      <point x="872" y="0" type="line"/>
      <point x="872" y="1241" type="line"/>
      <point x="614" y="1241" type="line" smooth="yes"/>
      <point x="331" y="1241"/>
      <point x="137" y="1195"/>
      <point x="137" y="956" type="curve" smooth="yes"/>
      <point x="137" y="700.585"/>
      <point x="308.125" y="643.747"/>
      <point x="498.93" y="639.296" type="curve" smooth="yes"/>
      <point x="507.584" y="639.094"/>
      <point x="516.279" y="639"/>
      <point x="525" y="639" type="curve"/>
    </contour>
  </outline>
</glyph>
<glyph name="cedilla" format="1">
  <advance width="441"/>
  <unicode hex="00B8"/>
  <outline>
    <contour>
      <point x="327" y="-357" type="curve"/>
      <point x="336" y="-309" type="line"/>
      <point x="269" y="-289"/>
      <point x="208" y="-230"/>
      <point x="208" y="-181" type="curve" smooth="yes"/>
      <point x="208" y="-148"/>
      <point x="235" y="-120"/>
      <point x="306" y="-111" type="curve"/>
      <point x="306" y="0" type="line"/>
      <point x="247" y="0" type="line"/>
      <point x="247" y="-71" type="line"/>
      <point x="149" y="-99"/>
      <point x="111" y="-146"/>
      <point x="111" y="-194" type="curve" smooth="yes"/>
      <point x="111" y="-274"/>
      <point x="217" y="-357"/>
    </contour>
    <contour>
      <point x="223.5" y="0" type="move" name="_bottom"/>
    </contour>
  </outline>
</glyph>
<glyph name="questiondown" format="1">
  <advance width="893"/>
  <unicode hex="00BF"/>
  <outline>
    <contour>
      <point x="461" y="-446" type="curve" smooth="yes"/>
      <point x="599" y="-446"/>
      <point x="737" y="-386"/>
      <point x="799" y="-332" type="curve"/>
      <point x="746" y="-240" type="line"/>
      <point x="671" y="-296"/>
      <point x="575" y="-339"/>
      <point x="469" y="-339" type="curve" smooth="yes"/>
      <point x="351" y="-339"/>
      <point x="236" y="-273"/>
      <point x="236" y="-126" type="curve" smooth="yes"/>
      <point x="236" y="19"/>
      <point x="316" y="109"/>
      <point x="650" y="480" type="curve"/>
      <point x="538" y="480" type="line"/>
      <point x="265" y="199"/>
      <point x="107" y="73"/>
      <point x="107" y="-119" type="curve" smooth="yes"/>
      <point x="107" y="-334"/>
      <point x="270" y="-446"/>
    </contour>
    <component base="period" xOffset="873" yOffset="828" xScale="-1" yScale="-1"/>
  </outline>
</glyph>
<glyph name="AE" format="1">
  <advance width="1518"/>
  <unicode hex="00C6"/>
  <outline>
    <contour>
      <point x="130" y="0" type="line"/>
      <point x="259" y="0" type="line"/>
      <point x="392" y="299" type="line"/>
      <point x="721" y="299" type="line"/>
      <point x="719" y="100" type="line"/>
      <point x="783" y="100" type="line"/>
      <point x="686" y="1242" type="line"/>
    </contour>
    <contour>
      <point x="431" y="392" type="line"/>
      <point x="685" y="992" type="line"/>
      <point x="716" y="392" type="line"/>
    </contour>
    <component base="E" xOffset="487"/>
    <contour>
      <point x="759" y="1241" type="move" name="top"/>
    </contour>
  </outline>
</glyph>
<glyph name="multiply" format="1">
  <advance width="725"/>
  <unicode hex="00D7"/>
  <outline>
    <contour>
      <point x="204" y="382" type="line"/>
      <point x="362" y="540" type="line"/>
      <point x="520" y="382" type="line"/>
      <point x="585" y="448" type="line"/>
      <point x="428" y="605" type="line"/>
      <point x="586" y="764" type="line"/>
      <point x="520" y="829" type="line"/>
      <point x="362" y="671" type="line"/>
      <point x="204" y="829" type="line"/>
      <point x="138" y="764" type="line"/>
      <point x="296" y="605" type="line"/>
      <point x="139" y="448" type="line"/>
    </contour>
  </outline>
</glyph>
<glyph name="germandbls" format="1">
  <advance width="1105"/>
  <unicode hex="00DF"/>
  <outline>
    <contour>
      <point x="656" y="-34" type="curve" smooth="yes"/>
      <point x="854" y="-34"/>
      <point x="1015" y="46"/>
      <point x="1015" y="279" type="curve" smooth="yes"/>
      <point x="1015" y="399"/>
      <point x="1002" y="523"/>
      <point x="650" y="669" type="curve"/>
      <point x="837" y="698"/>
      <point x="874" y="847"/>
      <point x="874" y="930" type="curve" smooth="yes"/>
      <point x="874" y="1134"/>
      <point x="718" y="1241"/>
      <point x="522" y="1241" type="curve" smooth="yes"/>
      <point x="285" y="1241"/>
      <point x="165" y="1094"/>
      <point x="165" y="935" type="curve" smooth="yes"/>
      <point x="165" y="0" type="line"/>
      <point x="293" y="0" type="line"/>
      <point x="293" y="942" type="line" smooth="yes"/>
      <point x="293" y="1045"/>
      <point x="362" y="1145"/>
      <point x="533" y="1145" type="curve" smooth="yes"/>
      <point x="674" y="1145"/>
      <point x="761" y="1064"/>
      <point x="761" y="932" type="curve" smooth="yes"/>
      <point x="761" y="757"/>
      <point x="621" y="728"/>
      <point x="487" y="728" type="curve"/>
      <point x="487" y="650" type="line"/>
      <point x="714" y="541" type="line"/>
      <point x="865" y="462"/>
      <point x="898" y="389"/>
      <point x="898" y="273" type="curve" smooth="yes"/>
      <point x="898" y="132"/>
      <point x="811" y="67"/>
      <point x="653" y="67" type="curve" smooth="yes"/>
      <point x="530" y="67"/>
      <point x="407" y="123"/>
      <point x="407" y="123" type="curve"/>
      <point x="407" y="21" type="line"/>
      <point x="407" y="21"/>
      <point x="525" y="-34"/>
    </contour>
  </outline>
</glyph>
<glyph name="eth" format="1">
  <advance width="978"/>
  <unicode hex="00F0"/>
  <outline>
    <contour>
      <point x="484" y="-16" type="curve" smooth="yes"/>
      <point x="725" y="-16"/>
      <point x="888" y="161"/>
      <point x="888" y="386" type="curve" smooth="yes"/>
      <point x="888" y="550"/>
      <point x="824" y="659"/>
      <point x="708" y="831" type="curve" smooth="yes"/>
      <point x="635" y="940"/>
      <point x="389" y="1241"/>
      <point x="389" y="1241" type="curve"/>
      <point x="258" y="1241" type="line"/>
      <point x="661" y="714" type="line"/>
      <point x="630" y="737"/>
      <point x="556" y="768"/>
      <point x="463" y="768" type="curve" smooth="yes"/>
      <point x="274" y="768"/>
      <point x="78" y="605"/>
      <point x="78" y="376" type="curve" smooth="yes"/>
      <point x="78" y="154"/>
      <point x="256" y="-16"/>
    </contour>
    <contour>
      <point x="491" y="81" type="curve" smooth="yes"/>
      <point x="324" y="81"/>
      <point x="195" y="217"/>
      <point x="195" y="373" type="curve" smooth="yes"/>
      <point x="195" y="538"/>
      <point x="321" y="666"/>
      <point x="484" y="666" type="curve" smooth="yes"/>
      <point x="665" y="666"/>
      <point x="766" y="520"/>
      <point x="766" y="367" type="curve" smooth="yes"/>
      <point x="766" y="213"/>
      <point x="658" y="81"/>
    </contour>
    <contour>
      <point x="279" y="882" type="line"/>
      <point x="731" y="1194" type="line"/>
      <point x="680" y="1258" type="line"/>
      <point x="228" y="946" type="line"/>
    </contour>
  </outline>
</glyph>
<glyph name="oslash" format="1">
  <advance width="1146"/>
  <unicode hex="00F8"/>
  <outline>
    <contour>
      <point x="265" y="-74" type="line"/>
      <point x="215" y="-39" type="line"/>
      <point x="865" y="901" type="line"/>
      <point x="915" y="866" type="line"/>
    </contour>
    <component base="o"/>
    <contour>
      <point x="573" y="824" type="move" name="top"/>
    </contour>
  </outline>
</glyph>
<glyph name="dotlessi" format="1">
  <advance width="508"/>
  <unicode hex="0131"/>
  <outline>
    <contour>
      <point x="193" y="0" type="line"/>
      <point x="321" y="0" type="line"/>
      <point x="321" y="824" type="line"/>
      <point x="193" y="824" type="line"/>
    </contour>
    <contour>
      <point x="254" y="824" type="move" name="top"/>
    </contour>
    <contour>
      <point x="457" y="10" type="move" name="ogonek"/>
    </contour>
  </outline>
</glyph>
<glyph name="kgreenlandic" format="1">
  <advance width="888"/>
  <unicode hex="0138"/>
  <outline>
    <contour>
      <point x="165" y="-1" type="line"/>
      <point x="293" y="-1" type="line"/>
      <point x="293" y="392" type="line"/>
      <point x="728" y="0" type="line"/>
      <point x="891" y="0" type="line"/>
      <point x="432" y="418" type="line"/>
      <point x="831" y="823" type="line"/>
      <point x="673" y="823" type="line"/>
      <point x="293" y="437" type="line"/>
      <point x="293" y="823" type="line"/>
      <point x="165" y="823" type="line"/>
    </contour>
  </outline>
</glyph>
<glyph name="Lslash" format="1">
  <advance width="1009"/>
  <unicode hex="0141"/>
  <outline>
    <contour>
      <point x="0" y="483" type="line"/>
      <point x="610" y="747" type="line"/>
      <point x="610" y="840" type="line"/>
      <point x="0" y="576" type="line"/>
    </contour>
    <component base="L"/>
  </outline>
</glyph>
<glyph name="lslash" format="1">
  <advance width="597"/>
  <unicode hex="0142"/>
  <outline>
    <contour>
      <point x="20" y="483" type="line"/>
      <point x="507" y="747" type="line"/>
      <point x="507" y="840" type="line"/>
      <point x="20" y="576" type="line"/>
    </contour>
    <component base="l"/>
  </outline>
</glyph>
<glyph name="OE" format="1">
  <advance width="2078"/>
  <unicode hex="0152"/>
  <outline>
    <contour>
      <point x="766" y="-34" type="curve" smooth="yes"/>
      <point x="978.114" y="-34"/>
      <point x="1181.17" y="51.0663"/>
      <point x="1303" y="223.423" type="curve"/>
      <point x="1303" y="0" type="line"/>
      <point x="2033" y="0" type="line"/>
      <point x="2033" y="106" type="line"/>
      <point x="1429" y="106" type="line"/>
      <point x="1429" y="588" type="line"/>
      <point x="1960" y="588" type="line"/>
      <point x="1960" y="694" type="line"/>
      <point x="1431" y="694" type="line"/>
      <point x="1431" y="1135" type="line"/>
      <point x="2023" y="1135" type="line"/>
      <point x="2023" y="1241" type="line"/>
      <point x="1303" y="1241" type="line"/>
      <point x="1303" y="1017.99" type="line"/>
      <point x="1181.09" y="1188.91"/>
      <point x="977.771" y="1274"/>
      <point x="765" y="1274" type="curve" smooth="yes"/>
      <point x="428" y="1274"/>
      <point x="100" y="1058"/>
      <point x="100" y="619" type="curve" smooth="yes"/>
      <point x="100" y="182"/>
      <point x="428" y="-34"/>
    </contour>
    <contour>
      <point x="765" y="72" type="curve" smooth="yes"/>
      <point x="491" y="72"/>
      <point x="230" y="245"/>
      <point x="230" y="619" type="curve" smooth="yes"/>
      <point x="230" y="994"/>
      <point x="478" y="1168"/>
      <point x="765" y="1168" type="curve" smooth="yes"/>
      <point x="1050" y="1168"/>
      <point x="1303" y="994"/>
      <point x="1303" y="618" type="curve" smooth="yes"/>
      <point x="1303" y="246"/>
      <point x="1023" y="72"/>
    </contour>
    <contour>
      <point x="1039" y="1241" type="move" name="top"/>
    </contour>
  </outline>
</glyph>
<glyph name="oe" format="1">
  <advance width="1719"/>
  <unicode hex="0153"/>
  <outline>
    <contour>
      <point x="1002" y="474" type="line"/>
      <point x="1010" y="542"/>
      <point x="1062" y="742"/>
      <point x="1280" y="742" type="curve" smooth="yes"/>
      <point x="1434" y="742"/>
      <point x="1512" y="614"/>
      <point x="1521" y="474" type="curve"/>
    </contour>
    <contour>
      <point x="552" y="-16" type="curve" smooth="yes"/>
      <point x="709.67" y="-16"/>
      <point x="854.181" y="54.9766"/>
      <point x="933.729" y="184.226" type="curve"/>
      <point x="1010.31" y="51.207"/>
      <point x="1154.87" y="-15"/>
      <point x="1326" y="-15" type="curve" smooth="yes"/>
      <point x="1455" y="-15"/>
      <point x="1531" y="18"/>
      <point x="1598" y="57" type="curve"/>
      <point x="1598" y="159" type="line"/>
      <point x="1537" y="126"/>
      <point x="1465" y="81"/>
      <point x="1323" y="81" type="curve" smooth="yes"/>
      <point x="1151" y="81"/>
      <point x="1009" y="170"/>
      <point x="994" y="388" type="curve"/>
      <point x="1629" y="388" type="line"/>
      <point x="1629" y="409" type="line" smooth="yes"/>
      <point x="1629" y="633"/>
      <point x="1521" y="840"/>
      <point x="1265" y="840" type="curve" smooth="yes"/>
      <point x="1120.74" y="840"/>
      <point x="995.207" y="763.721"/>
      <point x="927.74" y="641.254" type="curve"/>
      <point x="844.529" y="769.87"/>
      <point x="699.031" y="840"/>
      <point x="554" y="840" type="curve" smooth="yes"/>
      <point x="321" y="840"/>
      <point x="108" y="682"/>
      <point x="108" y="408" type="curve" smooth="yes"/>
      <point x="108" y="138"/>
      <point x="320" y="-16"/>
    </contour>
    <contour>
      <point x="553" y="81" type="curve" smooth="yes"/>
      <point x="337" y="81"/>
      <point x="227" y="230"/>
      <point x="227" y="410" type="curve" smooth="yes"/>
      <point x="227" y="576"/>
      <point x="341" y="742"/>
      <point x="553" y="742" type="curve" smooth="yes"/>
      <point x="765" y="742"/>
      <point x="875" y="575"/>
      <point x="875" y="409" type="curve" smooth="yes"/>
      <point x="875" y="244"/>
      <point x="769" y="81"/>
    </contour>
    <contour>
      <point x="860" y="824" type="move" name="top"/>
    </contour>
  </outline>
</glyph>
<glyph name="florin" format="1">
  <advance width="875"/>
  <unicode hex="0192"/>
  <outline>
    <contour>
      <point x="187" y="-317" type="curve" smooth="yes"/>
      <point x="365" y="-317"/>
      <point x="446" y="-190"/>
      <point x="462" y="0" type="curve" smooth="yes"/>
      <point x="510.586" y="555" type="line"/>
      <point x="771" y="555" type="line"/>
      <point x="771" y="648" type="line"/>
      <point x="518.728" y="648" type="line"/>
      <point x="540" y="891" type="line" smooth="yes"/>
      <point x="554" y="1056"/>
      <point x="610" y="1105"/>
      <point x="700" y="1105" type="curve" smooth="yes"/>
      <point x="740" y="1105"/>
      <point x="754" y="1098"/>
      <point x="800" y="1085" type="curve"/>
      <point x="809" y="1187" type="line"/>
      <point x="756" y="1203"/>
      <point x="731" y="1208"/>
      <point x="687" y="1208" type="curve" smooth="yes"/>
      <point x="509" y="1208"/>
      <point x="429" y="1081"/>
      <point x="412" y="891" type="curve" smooth="yes"/>
      <point x="390.728" y="648" type="line"/>
      <point x="161" y="648" type="line"/>
      <point x="161" y="555" type="line"/>
      <point x="382.586" y="555" type="line"/>
      <point x="334" y="0" type="line"/>
      <point x="321" y="-165"/>
      <point x="264" y="-214"/>
      <point x="174" y="-214" type="curve" smooth="yes"/>
      <point x="134" y="-214"/>
      <point x="120" y="-207"/>
      <point x="74" y="-194" type="curve"/>
      <point x="65" y="-296" type="line"/>
      <point x="118" y="-312"/>
      <point x="143" y="-317"/>
    </contour>
  </outline>
</glyph>
<glyph name="uni0237" format="1">
  <advance width="529"/>
  <unicode hex="0237"/>
  <outline>
    <contour>
      <point x="46" y="-326" type="line"/>
      <point x="312" y="-312"/>
      <point x="348" y="-182"/>
      <point x="348" y="-79" type="curve" smooth="yes"/>
      <point x="348" y="824" type="line"/>
      <point x="220" y="824" type="line"/>
      <point x="220" y="-76" type="line" smooth="yes"/>
      <point x="220" y="-178"/>
      <point x="145" y="-213"/>
      <point x="49" y="-221" type="curve" smooth="yes"/>
      <point x="41" y="-222"/>
      <point x="33" y="-222"/>
      <point x="24" y="-223" type="curve"/>
    </contour>
    <contour>
      <point x="265" y="824" type="move" name="top"/>
    </contour>
  </outline>
</glyph>
<glyph name="circumflex" format="1">
  <advance width="742"/>
  <unicode hex="02C6"/>
  <outline>
    <contour>
      <point x="156" y="146" type="curve" smooth="yes"/>
      <point x="163" y="146"/>
      <point x="170" y="150"/>
      <point x="177" y="158" type="curve" smooth="yes"/>
      <point x="370" y="386" type="line"/>
      <point x="563" y="158" type="line" smooth="yes"/>
      <point x="570" y="150"/>
      <point x="577" y="146"/>
      <point x="584" y="146" type="curve" smooth="yes"/>
      <point x="594" y="146"/>
      <point x="602" y="154"/>
      <point x="602" y="166" type="curve" smooth="yes"/>
      <point x="602" y="170"/>
      <point x="601" y="175"/>
      <point x="598" y="181" type="curve" smooth="yes"/>
      <point x="431" y="501" type="line" smooth="yes"/>
      <point x="420" y="522"/>
      <point x="395" y="541"/>
      <point x="370" y="541" type="curve" smooth="yes"/>
      <point x="345" y="541"/>
      <point x="321" y="523"/>
      <point x="309" y="501" type="curve" smooth="yes"/>
      <point x="142" y="181" type="line" smooth="yes"/>
      <point x="139" y="175"/>
      <point x="138" y="170"/>
      <point x="138" y="166" type="curve" smooth="yes"/>
      <point x="138" y="154"/>
      <point x="146" y="146"/>
    </contour>
    <contour>
      <point x="370" y="824" type="move" name="_top"/>
    </contour>
  </outline>
</glyph>
<glyph name="caron" format="1">
  <advance width="741"/>
  <unicode hex="02C7"/>
  <outline>
    <contour>
      <point x="370" y="156" type="curve" smooth="yes"/>
      <point x="395" y="156"/>
      <point x="419" y="174"/>
      <point x="431" y="196" type="curve" smooth="yes"/>
      <point x="598" y="516" type="line" smooth="yes"/>
      <point x="601" y="522"/>
      <point x="602" y="527"/>
      <point x="602" y="531" type="curve" smooth="yes"/>
      <point x="602" y="543"/>
      <point x="594" y="551"/>
      <point x="584" y="551" type="curve" smooth="yes"/>
      <point x="577" y="551"/>
      <point x="570" y="547"/>
      <point x="563" y="539" type="curve" smooth="yes"/>
      <point x="370" y="311" type="line"/>
      <point x="177" y="539" type="line" smooth="yes"/>
      <point x="170" y="547"/>
      <point x="163" y="551"/>
      <point x="156" y="551" type="curve" smooth="yes"/>
      <point x="146" y="551"/>
      <point x="138" y="543"/>
      <point x="138" y="531" type="curve" smooth="yes"/>
      <point x="138" y="527"/>
      <point x="139" y="522"/>
      <point x="142" y="516" type="curve" smooth="yes"/>
      <point x="309" y="196" type="line" smooth="yes"/>
      <point x="320" y="175"/>
      <point x="345" y="156"/>
    </contour>
    <contour>
      <point x="370" y="824" type="move" name="_top"/>
    </contour>
  </outline>
</glyph>
<glyph name="breve" format="1">
  <advance width="727"/>
  <unicode hex="02D8"/>
  <outline>
    <contour>
      <point x="362" y="148" type="curve" smooth="yes"/>
      <point x="164" y="148"/>
      <point x="142" y="328"/>
      <point x="142" y="328" type="curve"/>
      <point x="220" y="346" type="line"/>
      <point x="220" y="346"/>
      <point x="244" y="235"/>
      <point x="362" y="235" type="curve" smooth="yes"/>
      <point x="480" y="235"/>
      <point x="504" y="346"/>
      <point x="504" y="346" type="curve"/>
      <point x="582" y="328" type="line"/>
      <point x="582" y="328"/>
      <point x="560" y="148"/>
    </contour>
    <contour>
      <point x="362" y="824" type="move" name="_top"/>
    </contour>
  </outline>
</glyph>
<glyph name="dotaccent" format="1">
  <advance width="475"/>
  <unicode hex="02D9"/>
  <outline>
    <component base="period" xOffset="19" yOffset="179"/>
    <contour>
      <point x="119" y="824" type="move" name="_top"/>
    </contour>
  </outline>
</glyph>
<glyph name="ring" format="1">
  <advance width="728"/>
  <unicode hex="02DA"/>
  <outline>
    <contour>
      <point x="363" y="191" type="curve" smooth="yes"/>
      <point x="250" y="191"/>
      <point x="146" y="266"/>
      <point x="146" y="399" type="curve" smooth="yes"/>
      <point x="146" y="533"/>
      <point x="250" y="610"/>
      <point x="364" y="610" type="curve" smooth="yes"/>
      <point x="471" y="610"/>
      <point x="582" y="533"/>
      <point x="582" y="399" type="curve" smooth="yes"/>
      <point x="582" y="267"/>
      <point x="477" y="191"/>
    </contour>
    <contour>
      <point x="363" y="265" type="curve" smooth="yes"/>
      <point x="451" y="265"/>
      <point x="495" y="331"/>
      <point x="495" y="398" type="curve" smooth="yes"/>
      <point x="495" y="466"/>
      <point x="449" y="534"/>
      <point x="363" y="534" type="curve" smooth="yes"/>
      <point x="277" y="534"/>
      <point x="231" y="466"/>
      <point x="231" y="399" type="curve" smooth="yes"/>
      <point x="231" y="326"/>
      <point x="275" y="265"/>
    </contour>
    <contour>
      <point x="364" y="824" type="move" name="_top"/>
    </contour>
  </outline>
</glyph>
<glyph name="ogonek" format="1">
  <advance width="451"/>
  <unicode hex="02DB"/>
  <outline>
    <contour>
      <point x="264" y="-376" type="curve"/>
      <point x="333" y="-318" type="line"/>
      <point x="268" y="-263"/>
      <point x="244" y="-214"/>
      <point x="244" y="-170" type="curve" smooth="yes"/>
      <point x="244" y="-109"/>
      <point x="289" y="-56"/>
      <point x="333" y="0" type="curve"/>
      <point x="274" y="0" type="line"/>
      <point x="165" y="-92"/>
      <point x="124" y="-166"/>
      <point x="124" y="-225" type="curve" smooth="yes"/>
      <point x="124" y="-299"/>
      <point x="189" y="-348"/>
    </contour>
    <contour>
      <point x="333" y="10" type="move" name="_ogonek"/>
    </contour>
  </outline>
</glyph>
<glyph name="tilde" format="1">
  <advance width="899"/>
  <unicode hex="02DC"/>
  <outline>
    <contour>
      <point x="591" y="160" type="curve" smooth="yes"/>
      <point x="667" y="160"/>
      <point x="741" y="194"/>
      <point x="741" y="352" type="curve"/>
      <point x="643" y="352" type="line"/>
      <point x="643" y="281"/>
      <point x="624" y="259"/>
      <point x="579" y="259" type="curve" smooth="yes"/>
      <point x="515" y="259"/>
      <point x="389" y="366"/>
      <point x="289" y="366" type="curve" smooth="yes"/>
      <point x="203" y="366"/>
      <point x="140" y="335"/>
      <point x="140" y="174" type="curve"/>
      <point x="238" y="174" type="line"/>
      <point x="238" y="234"/>
      <point x="254" y="263"/>
      <point x="294" y="263" type="curve" smooth="yes"/>
      <point x="378" y="263"/>
      <point x="466" y="160"/>
    </contour>
    <contour>
      <point x="440.5" y="824" type="move" name="_top"/>
    </contour>
  </outline>
</glyph>
<glyph name="hungarumlaut" format="1">
  <advance width="651"/>
  <unicode hex="02DD"/>
  <outline>
    <component base="acute"/>
    <component base="acute" xOffset="208"/>
    <contour>
      <point x="325" y="824" type="move" name="_top"/>
    </contour>
  </outline>
</glyph>
<glyph name="uni0311" format="1">
  <advance width="727"/>
  <unicode hex="0311"/>
  <outline>
    <contour>
      <point x="220" y="148" type="curve"/>
      <point x="142" y="166" type="line"/>
      <point x="142" y="166"/>
      <point x="164" y="346"/>
      <point x="362" y="346" type="curve" smooth="yes"/>
      <point x="560" y="346"/>
      <point x="582" y="166"/>
      <point x="582" y="166" type="curve"/>
      <point x="504" y="148" type="line"/>
      <point x="504" y="148"/>
      <point x="480" y="259"/>
      <point x="362" y="259" type="curve" smooth="yes"/>
      <point x="244" y="259"/>
      <point x="220" y="148"/>
    </contour>
  </outline>
</glyph>
<glyph name="uni0326" format="1">
  <advance width="442"/>
  <unicode hex="0326"/>
  <outline>
    <contour>
      <point x="200.191" y="-400.12" type="curve" smooth="yes"/>
      <point x="222.038" y="-400.12"/>
      <point x="244.491" y="-389.182"/>
      <point x="259" y="-362.1" type="curve"/>
      <point x="366" y="-112.1" type="line" smooth="yes"/>
      <point x="368.345" y="-106.622"/>
      <point x="369.373" y="-101.672"/>
      <point x="369.373" y="-97.3535" type="curve" smooth="yes"/>
      <point x="369.373" y="-85.3184"/>
      <point x="361.387" y="-78.1855"/>
      <point x="351.64" y="-78.1855" type="curve" smooth="yes"/>
      <point x="344.916" y="-78.1855"/>
      <point x="337.355" y="-81.5791"/>
      <point x="331" y="-89.0996" type="curve" smooth="yes"/>
      <point x="151" y="-302.1" type="line" smooth="yes"/>
      <point x="139.603" y="-315.725"/>
      <point x="134.795" y="-329.387"/>
      <point x="134.795" y="-342.003" type="curve" smooth="yes"/>
      <point x="134.795" y="-374.544"/>
      <point x="166.784" y="-400.12"/>
    </contour>
    <contour>
      <point x="252.084" y="0" type="move" name="_bottom"/>
    </contour>
  </outline>
</glyph>
<glyph name="mu" format="1">
  <advance width="1098"/>
  <unicode hex="03BC"/>
  <outline>
    <contour>
      <point x="153" y="-248" type="line"/>
      <point x="281" y="-248" type="line"/>
      <point x="281" y="299" type="line"/>
      <point x="153" y="299" type="line"/>
    </contour>
    <component base="u" xOffset="4"/>
  </outline>
</glyph>
<glyph name="dagger" format="1">
  <advance width="913"/>
  <unicode hex="2020"/>
  <outline>
    <contour>
      <point x="409" y="0" type="line"/>
      <point x="502" y="0" type="line"/>
      <point x="502" y="647" type="line"/>
      <point x="761" y="647" type="line"/>
      <point x="761" y="740" type="line"/>
      <point x="502" y="740" type="line"/>
      <point x="502" y="999" type="line"/>
      <point x="409" y="999" type="line"/>
      <point x="409" y="740" type="line"/>
      <point x="151" y="740" type="line"/>
      <point x="151" y="647" type="line"/>
      <point x="409" y="647" type="line"/>
    </contour>
  </outline>
</glyph>
<glyph name="guilsinglleft" format="1">
  <advance width="482"/>
  <unicode hex="2039"/>
  <outline>
    <contour>
      <point x="393" y="197" type="curve" smooth="yes"/>
      <point x="409" y="197"/>
      <point x="420" y="208"/>
      <point x="420" y="221" type="curve" smooth="yes"/>
      <point x="420" y="229"/>
      <point x="413" y="237"/>
      <point x="404" y="248" type="curve"/>
      <point x="233" y="497" type="line"/>
      <point x="404" y="747" type="line"/>
      <point x="413" y="758"/>
      <point x="420" y="766"/>
      <point x="420" y="774" type="curve" smooth="yes"/>
      <point x="420" y="787"/>
      <point x="409" y="798"/>
      <point x="393" y="798" type="curve" smooth="yes"/>
      <point x="388" y="798"/>
      <point x="381" y="797"/>
      <point x="373" y="793" type="curve"/>
      <point x="119" y="577" type="line"/>
      <point x="86" y="555"/>
      <point x="69" y="526"/>
      <point x="69" y="497" type="curve" smooth="yes"/>
      <point x="69" y="469"/>
      <point x="85" y="440"/>
      <point x="119" y="418" type="curve"/>
      <point x="373" y="202" type="line"/>
      <point x="381" y="198"/>
      <point x="388" y="197"/>
    </contour>
  </outline>
</glyph>
<glyph name="guilsinglright" format="1">
  <advance width="499"/>
  <unicode hex="203A"/>
  <outline>
    <contour>
      <point x="71" y="197" type="curve" smooth="yes"/>
      <point x="76" y="197"/>
      <point x="83" y="198"/>
      <point x="91" y="202" type="curve"/>
      <point x="345" y="418" type="line"/>
      <point x="378" y="440"/>
      <point x="395" y="469"/>
      <point x="395" y="498" type="curve" smooth="yes"/>
      <point x="395" y="526"/>
      <point x="379" y="555"/>
      <point x="345" y="577" type="curve"/>
      <point x="91" y="793" type="line"/>
      <point x="83" y="797"/>
      <point x="76" y="798"/>
      <point x="71" y="798" type="curve" smooth="yes"/>
      <point x="55" y="798"/>
      <point x="44" y="787"/>
      <point x="44" y="774" type="curve" smooth="yes"/>
      <point x="44" y="766"/>
      <point x="51" y="758"/>
      <point x="60" y="747" type="curve"/>
      <point x="231" y="498" type="line"/>
      <point x="60" y="248" type="line"/>
      <point x="51" y="237"/>
      <point x="44" y="229"/>
      <point x="44" y="221" type="curve" smooth="yes"/>
      <point x="44" y="208"/>
      <point x="55" y="197"/>
    </contour>
  </outline>
</glyph>
<glyph name="Euro" format="1">
  <advance width="1283"/>
  <unicode hex="20AC"/>
  <outline>
    <contour>
      <point x="843.567" y="-33.1611" type="curve" smooth="yes"/>
      <point x="963.751" y="-33.1611"/>
      <point x="1089.46" y="-4.27148"/>
      <point x="1210.9" y="57" type="curve"/>
      <point x="1210.9" y="170" type="line"/>
      <point x="1087.47" y="104.091"/>
      <point x="960.725" y="72.0791"/>
      <point x="842.596" y="72.0791" type="curve" smooth="yes"/>
      <point x="606.385" y="72.0791"/>
      <point x="404.645" y="200.077"/>
      <point x="332.872" y="441" type="curve"/>
      <point x="759" y="441" type="line"/>
      <point x="759" y="534" type="line"/>
      <point x="312.607" y="534" type="line"/>
      <point x="307.541" y="569.107"/>
      <point x="304.9" y="606.119"/>
      <point x="304.9" y="645" type="curve" smooth="yes"/>
      <point x="304.9" y="657.227"/>
      <point x="305.186" y="669.227"/>
      <point x="305.748" y="681" type="curve"/>
      <point x="759" y="681" type="line"/>
      <point x="759" y="774" type="line"/>
      <point x="316.67" y="774" type="line"/>
      <point x="368.843" y="1043.94"/>
      <point x="587.288" y="1167.72"/>
      <point x="827.443" y="1167.72" type="curve" smooth="yes"/>
      <point x="956.469" y="1167.72"/>
      <point x="1091.76" y="1131.99"/>
      <point x="1210.9" y="1064" type="curve"/>
      <point x="1210.9" y="1169" type="line"/>
      <point x="1086" y="1240.81"/>
      <point x="951.204" y="1274.75"/>
      <point x="821.496" y="1274.75" type="curve" smooth="yes"/>
      <point x="519.984" y="1274.75"/>
      <point x="245.939" y="1091.37"/>
      <point x="187.396" y="774" type="curve"/>
      <point x="68" y="774" type="line"/>
      <point x="68" y="681" type="line"/>
      <point x="176.755" y="681" type="line"/>
      <point x="176.188" y="669.154"/>
      <point x="175.9" y="657.153"/>
      <point x="175.9" y="645" type="curve" smooth="yes"/>
      <point x="175.9" y="606.612"/>
      <point x="178.469" y="569.589"/>
      <point x="183.409" y="534" type="curve"/>
      <point x="68" y="534" type="line"/>
      <point x="68" y="441" type="line"/>
      <point x="202.489" y="441" type="line"/>
      <point x="284.732" y="142.325"/>
      <point x="547.357" y="-33.1611"/>
    </contour>
  </outline>
</glyph>
<glyph name="minus" format="1">
  <advance width="917"/>
  <unicode hex="2212"/>
  <outline>
    <contour>
      <point x="153" y="555" type="line"/>
      <point x="763" y="555" type="line"/>
      <point x="763" y="648" type="line"/>
      <point x="153" y="648" type="line"/>
    </contour>
  </outline>
</glyph>
<glyph name="integral" format="1">
  <advance width="875"/>
  <unicode hex="222B"/>
  <outline>
    <contour>
      <point x="189" y="-317" type="curve" smooth="yes"/>
      <point x="367" y="-317"/>
      <point x="448" y="-190"/>
      <point x="464" y="0" type="curve" smooth="yes"/>
      <point x="542" y="891" type="line" smooth="yes"/>
      <point x="556" y="1056"/>
      <point x="612" y="1105"/>
      <point x="702" y="1105" type="curve" smooth="yes"/>
      <point x="742" y="1105"/>
      <point x="756" y="1098"/>
      <point x="802" y="1085" type="curve"/>
      <point x="811" y="1187" type="line"/>
      <point x="758" y="1203"/>
      <point x="733" y="1208"/>
      <point x="689" y="1208" type="curve" smooth="yes"/>
      <point x="511" y="1208"/>
      <point x="431" y="1081"/>
      <point x="414" y="891" type="curve" smooth="yes"/>
      <point x="336" y="0" type="line" smooth="yes"/>
      <point x="323" y="-165"/>
      <point x="266" y="-214"/>
      <point x="176" y="-214" type="curve" smooth="yes"/>
      <point x="136" y="-214"/>
      <point x="122" y="-207"/>
      <point x="76" y="-194" type="curve"/>
      <point x="67" y="-296" type="line"/>
      <point x="120" y="-312"/>
      <point x="145" y="-317"/>
    </contour>
  </outline>
</glyph>
<glyph name="approxequal" format="1">
  <advance width="984"/>
  <unicode hex="2248"/>
  <outline>
    <contour>
      <point x="679.0" y="308.0" type="curve" smooth="yes"/>
      <point x="765.0" y="308.0"/>
      <point x="848.0" y="355.0"/>
      <point x="848.0" y="516.0" type="curve"/>
      <point x="750.0" y="516.0" type="line"/>
      <point x="750.0" y="456.0"/>
      <point x="714.0" y="424.0"/>
      <point x="674.0" y="424.0" type="curve" smooth="yes"/>
      <point x="590.0" y="424.0"/>
      <point x="432.0" y="530.0"/>
      <point x="307.0" y="530.0" type="curve" smooth="yes"/>
      <point x="231.0" y="530.0"/>
      <point x="137.0" y="480.0"/>
      <point x="137.0" y="322.0" type="curve"/>
      <point x="235.0" y="322.0" type="line"/>
      <point x="235.0" y="393.0"/>
      <point x="274.0" y="418.0"/>
      <point x="319.0" y="418.0" type="curve" smooth="yes"/>
      <point x="383.0" y="418.0"/>
      <point x="579.0" y="308.0"/>
    </contour>
    <contour>
      <point x="679.0" y="619.0" type="curve" smooth="yes"/>
      <point x="765.0" y="619.0"/>
      <point x="848.0" y="665.0"/>
      <point x="848.0" y="826.0" type="curve"/>
      <point x="750.0" y="826.0" type="line"/>
      <point x="750.0" y="766.0"/>
      <point x="714.0" y="734.0"/>
      <point x="674.0" y="734.0" type="curve" smooth="yes"/>
      <point x="590.0" y="734.0"/>
      <point x="432.0" y="840.0"/>
      <point x="307.0" y="840.0" type="curve" smooth="yes"/>
      <point x="231.0" y="840.0"/>
      <point x="137.0" y="790.0"/>
      <point x="137.0" y="632.0" type="curve"/>
      <point x="235.0" y="632.0" type="line"/>
      <point x="235.0" y="703.0"/>
      <point x="274.0" y="729.0"/>
      <point x="319.0" y="729.0" type="curve" smooth="yes"/>
      <point x="383.0" y="729.0"/>
      <point x="579.0" y="619.0"/>
    </contour>
  </outline>
</glyph>
<glyph name="lessequal" format="1">
  <advance width="990"/>
  <unicode hex="2264"/>
  <outline>
    <contour>
      <point x="132" y="0" type="line"/>
      <point x="914" y="0" type="line"/>
      <point x="914" y="81" type="line"/>
      <point x="132" y="81" type="line"/>
    </contour>
    <contour>
      <point x="914" y="148" type="line"/>
      <point x="914" y="265" type="line"/>
      <point x="379" y="464" type="line"/>
      <point x="914" y="684" type="line"/>
      <point x="914" y="804" type="line"/>
      <point x="128" y="459" type="line"/>
    </contour>
  </outline>
</glyph>
<glyph name="greaterequal" format="1">
  <advance width="990"/>
  <unicode hex="2265"/>
  <outline>
    <contour>
      <point x="132.0" y="0.0" type="line"/>
      <point x="914.0" y="0.0" type="line"/>
      <point x="914.0" y="81.0" type="line"/>
      <point x="132.0" y="81.0" type="line"/>
    </contour>
    <contour>
      <point x="128" y="804" type="line"/>
      <point x="128" y="687" type="line"/>
      <point x="663" y="488" type="line"/>
      <point x="128" y="268" type="line"/>
      <point x="128" y="148" type="line"/>
      <point x="914" y="493" type="line"/>
    </contour>
  </outline>
</glyph>
<glyph name="lozenge" format="1">
  <advance width="900"/>
  <unicode hex="25CA"/>
  <outline>
    <contour>
      <point x="454.199" y="-25.5996" type="line"/>
      <point x="775.8" y="659.2" type="line"/>
      <point x="444.6" y="1344" type="line"/>
      <point x="123" y="659.2" type="line"/>
    </contour>
    <contour>
      <point x="455" y="165.6" type="line"/>
      <point x="224.6" y="659.2" type="line"/>
      <point x="443.8" y="1152.8" type="line"/>
      <point x="674.199" y="659.2" type="line"/>
    </contour>
  </outline>
</glyph>
<glyph name="uniFB01" format="1">
  <advance width="1109"/>
  <unicode hex="FB01"/>
  <outline>
    <contour>
      <point x="210" y="0" type="line"/>
      <point x="338" y="0" type="line"/>
      <point x="338" y="723" type="line"/>
      <point x="794" y="723" type="line"/>
      <point x="794" y="0" type="line"/>
      <point x="922" y="0" type="line"/>
      <point x="922" y="824" type="line"/>
      <point x="335" y="824" type="line"/>
      <point x="335" y="891" type="line" smooth="yes"/>
      <point x="335" y="1056"/>
      <point x="407" y="1105"/>
      <point x="497" y="1105" type="curve" smooth="yes"/>
      <point x="537" y="1105"/>
      <point x="573" y="1095"/>
      <point x="620" y="1082" type="curve"/>
      <point x="620" y="1184" type="line"/>
      <point x="566" y="1200"/>
      <point x="519" y="1208"/>
      <point x="475" y="1208" type="curve" smooth="yes"/>
      <point x="297" y="1208"/>
      <point x="207" y="1081"/>
      <point x="207" y="891" type="curve" smooth="yes"/>
      <point x="207" y="824" type="line"/>
      <point x="92" y="824" type="line"/>
      <point x="92" y="723" type="line"/>
      <point x="210" y="723" type="line"/>
    </contour>
    <contour>
      <point x="856" y="1064" type="curve" smooth="yes"/>
      <point x="913" y="1064"/>
      <point x="944" y="1108"/>
      <point x="944" y="1152" type="curve" smooth="yes"/>
      <point x="944" y="1194"/>
      <point x="913" y="1240"/>
      <point x="856" y="1240" type="curve" smooth="yes"/>
      <point x="797" y="1240"/>
      <point x="766" y="1195"/>
      <point x="766" y="1152" type="curve" smooth="yes"/>
      <point x="766" y="1108"/>
      <point x="797" y="1064"/>
    </contour>
  </outline>
</glyph>
<glyph name="uniFB02" format="1">
  <advance width="1198"/>
  <unicode hex="FB02"/>
  <outline>
    <contour>
      <point x="984" y="-16" type="curve" smooth="yes"/>
      <point x="1063" y="-16"/>
      <point x="1110" y="1"/>
      <point x="1143" y="14" type="curve"/>
      <point x="1143" y="105" type="line"/>
      <point x="1119" y="98"/>
      <point x="1060" y="81"/>
      <point x="1003" y="81" type="curve" smooth="yes"/>
      <point x="924" y="81"/>
      <point x="894" y="124"/>
      <point x="894" y="246" type="curve" smooth="yes"/>
      <point x="894.2" y="1179" type="line"/>
      <point x="700.2" y="1207.6"/>
      <point x="533" y="1208"/>
      <point x="489" y="1208" type="curve" smooth="yes"/>
      <point x="311" y="1208"/>
      <point x="207" y="1081"/>
      <point x="207" y="891" type="curve" smooth="yes"/>
      <point x="207" y="824" type="line"/>
      <point x="92" y="824" type="line"/>
      <point x="92" y="723" type="line"/>
      <point x="210" y="723" type="line"/>
      <point x="210" y="0" type="line"/>
      <point x="338" y="0" type="line"/>
      <point x="338" y="723" type="line"/>
      <point x="522" y="723" type="line"/>
      <point x="522" y="824" type="line"/>
      <point x="335" y="824" type="line"/>
      <point x="335" y="891" type="line" smooth="yes"/>
      <point x="335" y="1056"/>
      <point x="421" y="1105"/>
      <point x="511" y="1105" type="curve" smooth="yes"/>
      <point x="536.259" y="1105"/>
      <point x="663.68" y="1099.02"/>
      <point x="766" y="1091.34" type="curve"/>
      <point x="766" y="218" type="line" smooth="yes"/>
      <point x="766" y="60"/>
      <point x="859" y="-16"/>
    </contour>
  </outline>
</glyph>
<glyph name="uniFB00" format="1">
  <advance width="1202"/>
  <outline>
    <contour>
      <point x="210" y="0" type="line"/>
      <point x="338" y="0" type="line"/>
      <point x="338" y="723" type="line"/>
      <point x="811" y="723" type="line"/>
      <point x="811" y="0" type="line"/>
      <point x="939" y="0" type="line"/>
      <point x="939" y="723" type="line"/>
      <point x="1123" y="723" type="line"/>
      <point x="1123" y="824" type="line"/>
      <point x="936" y="824" type="line"/>
      <point x="936" y="891" type="line" smooth="yes"/>
      <point x="936" y="1056"/>
      <point x="1008" y="1105"/>
      <point x="1098" y="1105" type="curve" smooth="yes"/>
      <point x="1138" y="1105"/>
      <point x="1174" y="1095"/>
      <point x="1221" y="1082" type="curve"/>
      <point x="1221" y="1184" type="line"/>
      <point x="1167" y="1200"/>
      <point x="1120" y="1208"/>
      <point x="1076" y="1208" type="curve" smooth="yes"/>
      <point x="898" y="1208"/>
      <point x="808" y="1081"/>
      <point x="808" y="891" type="curve" smooth="yes"/>
      <point x="808" y="824" type="line"/>
      <point x="335" y="824" type="line"/>
      <point x="335" y="891" type="line" smooth="yes"/>
      <point x="335" y="1056"/>
      <point x="407" y="1105"/>
      <point x="497" y="1105" type="curve" smooth="yes"/>
      <point x="537" y="1105"/>
      <point x="573" y="1095"/>
      <point x="620" y="1082" type="curve"/>
      <point x="620" y="1184" type="line"/>
      <point x="566" y="1200"/>
      <point x="519" y="1208"/>
      <point x="475" y="1208" type="curve" smooth="yes"/>
      <point x="297" y="1208"/>
      <point x="207" y="1081"/>
      <point x="207" y="891" type="curve" smooth="yes"/>
      <point x="207" y="824" type="line"/>
      <point x="92" y="824" type="line"/>
      <point x="92" y="723" type="line"/>
      <point x="210" y="723" type="line"/>
    </contour>
  </outline>
</glyph>
<glyph name="uniFB03" format="1">
  <advance width="1661"/>
  <outline>
    <contour>
      <point x="1318" y="1108"/>
      <point x="1349" y="1064"/>
      <point x="1408" y="1064" type="curve" smooth="yes"/>
      <point x="1465" y="1064"/>
      <point x="1496" y="1108"/>
      <point x="1496" y="1152" type="curve" smooth="yes"/>
      <point x="1496" y="1194"/>
      <point x="1465" y="1240"/>
      <point x="1408" y="1240" type="curve" smooth="yes"/>
      <point x="1349" y="1240"/>
      <point x="1318" y="1195"/>
      <point x="1318" y="1152" type="curve" smooth="yes"/>
    </contour>
    <contour>
      <point x="338" y="723" type="line"/>
      <point x="792" y="723" type="line"/>
      <point x="792" y="0" type="line"/>
      <point x="920" y="0" type="line"/>
      <point x="920" y="723" type="line"/>
      <point x="1346" y="723" type="line"/>
      <point x="1346" y="0" type="line"/>
      <point x="1474" y="0" type="line"/>
      <point x="1474" y="824" type="line"/>
      <point x="917" y="824" type="line"/>
      <point x="917" y="891" type="line" smooth="yes"/>
      <point x="917" y="1056"/>
      <point x="989" y="1105"/>
      <point x="1079" y="1105" type="curve" smooth="yes"/>
      <point x="1119" y="1105"/>
      <point x="1155" y="1095"/>
      <point x="1202" y="1082" type="curve"/>
      <point x="1202" y="1184" type="line"/>
      <point x="1148" y="1200"/>
      <point x="1101" y="1208"/>
      <point x="1057" y="1208" type="curve" smooth="yes"/>
      <point x="879" y="1208"/>
      <point x="789" y="1081"/>
      <point x="789" y="891" type="curve" smooth="yes"/>
      <point x="789" y="824" type="line"/>
      <point x="335" y="824" type="line"/>
      <point x="335" y="891" type="line" smooth="yes"/>
      <point x="335" y="1056"/>
      <point x="407" y="1105"/>
      <point x="497" y="1105" type="curve" smooth="yes"/>
      <point x="537" y="1105"/>
      <point x="573" y="1095"/>
      <point x="620" y="1082" type="curve"/>
      <point x="620" y="1184" type="line"/>
      <point x="566" y="1200"/>
      <point x="519" y="1208"/>
      <point x="475" y="1208" type="curve" smooth="yes"/>
      <point x="297" y="1208"/>
      <point x="207" y="1081"/>
      <point x="207" y="891" type="curve" smooth="yes"/>
      <point x="207" y="824" type="line"/>
      <point x="92" y="824" type="line"/>
      <point x="92" y="723" type="line"/>
      <point x="210" y="723" type="line"/>
      <point x="210" y="0" type="line"/>
      <point x="338" y="0" type="line"/>
    </contour>
  </outline>
</glyph>
